<svg data-name="Laag 1" xmlns="http://www.w3.org/2000/svg" viewBox="0 0 100 100"><path d="M72.73 20.27l-.27.36h.44c0 .17-.09.44-.09.7a1.33 1.33 0 01-.17 1 1.72 1.72 0 00-.09 1c.09 0 .18-.09.26-.09v.27c-.53.53-.44 1.32-.53 1.94a3.27 3.27 0 010 1.86c-.08 1-.26 1.95-.35 2.92l-.27 1.68c-.35 1.6-.7 3.1-1.06 4.61-.17.7-.26 1.32-.44 1.94l-.53 2a16.29 16.29 0 00-.62 2 1 1 0 00.09.88c.09.09.09.18 0 .35s-.18.45-.18.71a.92.92 0 01-.09-.53l-.26.27c-.27.79-.53 1.59-.8 2.39a4.66 4.66 0 01-.53 1.15 1.2 1.2 0 00-.18.53 2.5 2.5 0 01-.35 1.15.33.33 0 000 .53 2 2 0 00-.35.62h-.09a.27.27 0 01.09.17 4.45 4.45 0 00-.89 1.69c-.27.53-.53 1-.8 1.41l-1.85 3.19a8.21 8.21 0 01-1.07 1.59c-.53.62-1 1.33-1.5 2s-1.06 1.23-1.59 1.77A14 14 0 0155 65.05c-.71.44-1.42.79-2.13 1.15a3.27 3.27 0 01-1 .26 7.9 7.9 0 01-5 0 11.53 11.53 0 01-4-1.86l-1-.79c-.18-.18-.44-.36-.71-.62a.94.94 0 00-.09.44 1.93 1.93 0 00.09.71c-.26 0-.17-.09-.26-.27a2.93 2.93 0 00-.09-.88c0-.18-.09-.27-.09-.36-.26 0-.26.18-.18.27a6.66 6.66 0 00.09 1.33 14.59 14.59 0 00.09 1.94c.09 1.33.18 2.75.35 4.16.27 2 .54 4.16.71 6.2l.8 6.72c.18 1.77.53 3.45.8 5.22a8.25 8.25 0 00.5 1.33c.26-.53-.09-.88 0-1.33.18.09.09.27.18.36s.08.26.08.44a.92.92 0 00.09.44 5.89 5.89 0 00.18 1.24l.27 1.42c.17 1 .35 1.85.53 2.83a2.86 2.86 0 00.35 1 2.38 2.38 0 010 2.3c-.18.18-.27.36-.53.45-.09 0-.18.08-.18.26-.17.27-.35.27-.62.35a2.66 2.66 0 00-1.15.09.71.71 0 01-.35-.17 1.33 1.33 0 01-.27.35l-1-.18a.39.39 0 01-.27-.26 3.48 3.48 0 01-.35-.8 9.16 9.16 0 00-.44-1.68 12.35 12.35 0 00-.36-1.77 1.26 1.26 0 00-.17-.62l-.53-1.33c-.27-1.15-.71-2.3-1.07-3.45a5.39 5.39 0 01-.53-1.24 3 3 0 01-.17-.88 6.34 6.34 0 00-.8-2.48 1.92 1.92 0 01-.44-1 5.35 5.35 0 00-.53-1.51 4.87 4.87 0 01-.36-1.24 8.58 8.58 0 00-.53-2l-.26-.8c-.27-.88-.53-1.77-.8-2.65a1.68 1.68 0 00-.27-.44.09.09 0 01.09-.09c-.09-.09-.09-.18-.17-.36a1.88 1.88 0 00-.09-.7c-.36-1-.62-2-.89-2.92a4.45 4.45 0 01-.26-1 13.6 13.6 0 00-.42-2.63 2 2 0 00-.35-.8.66.66 0 01-.18-.44 8.6 8.6 0 01-.17-1.51 3.65 3.65 0 00-.45-2.12h-.08c.08 0 0-.09 0-.18v-.17a13.57 13.57 0 00-.45-2v-.18c-.17-.88-.44-1.68-.62-2.47v-.71a3.72 3.72 0 00-.17-1.68 5.07 5.07 0 01-.36-1.6 6.31 6.31 0 00-.44-2.56c0-.27-.09-.53-.09-.89a16.81 16.81 0 01-.17-2.21 7.14 7.14 0 00-.31-1.4c0-.17-.09-.35-.09-.53-.09-1.06-.09-2-.18-3.09a5.82 5.82 0 00-.17-1.15c0-.18-.09-.36-.09-.54 0-1.32-.09-2.74-.18-4.07a4.91 4.91 0 010-1.15v-.62a26.27 26.27 0 01-.18-2.74V32a1.21 1.21 0 000-1 3.16 3.16 0 01.09-1.51 1.66 1.66 0 00.09-.7c0-.45-.09-1-.09-1.51a2.93 2.93 0 01.09-.88 6.66 6.66 0 00.09-1.33c.09-1.24.09-2.57.18-3.81a5.8 5.8 0 01.44-1.61c0-.09.09-.09.09-.17a12.13 12.13 0 01.44-2.39V17a25.52 25.52 0 011.06-2.83 7.65 7.65 0 00.66-1.17l1.06-1.6a.55.55 0 01.62-.26.55.55 0 00.62-.09.69.69 0 01.45-.18c.17 0 .35 0 .44.18a.82.82 0 00.26.09c.36.17.36.26.27.53-.36.71-.71 1.41-1.06 2l-.27.71a10.07 10.07 0 00-.53 1.51l-.27 1.41a.36.36 0 00-.08.27 13.48 13.48 0 01-.45 2.56 4.12 4.12 0 00-.35 2.3 17 17 0 00-.18 2.13 27.08 27.08 0 00-.09 3.71c0 1.42 0 2.84.09 4.25.09 1.68.18 3.28.36 5a12.27 12.27 0 00.09 1.77 4.78 4.78 0 00.08 1.06 15.71 15.71 0 01.18 2 5.05 5.05 0 00.18 1.23c.17 1.07.26 2.22.35 3.28.09.88.27 1.77.36 2.65a7.67 7.67 0 01.17 1.42 27.16 27.16 0 00.71 3.8c0 .27.09.53.09.8a5.92 5.92 0 00.35 1.77c.09.35.09.71.18 1.06a23.09 23.09 0 00.8 4.34.34.34 0 00.08.26 33.55 33.55 0 001.07 5.22.49.49 0 00.17.36V68c0-.18-.08-.36-.08-.53s-.09-.45 0-.62 0-.09.08-.09a.5.5 0 01-.26-.44.68.68 0 00-.09-.36c.27-.09.35-.18.35-.44 0-.09-.08-.18-.08-.35l-.09-.89c0-.62.09-1.24.09-1.86v-.88a2.72 2.72 0 01-.18-.71V59c0-.09-.09-.09 0-.18a2.49 2.49 0 00.09-1.15 4.92 4.92 0 01-.09-1.15 7.43 7.43 0 01-.09-2.83 3.66 3.66 0 00.09-1.42c-.09-.08-.09-.26-.09-.44a2.24 2.24 0 01.09-1.83 2.76 2.76 0 00.09-1.68c-.09-.17-.09-.35-.18-.44a4.34 4.34 0 01-.09-1.88 3.74 3.74 0 00.09-1.41 5.71 5.71 0 010-1.24 6.66 6.66 0 00.09-1.35v-.4a2.43 2.43 0 01.09-1.77c.17-.18.09-.53.17-.89 0-1 .09-1.94.18-2.92 0-.26 0-.44-.18-.53h-.08l.26-.26c.09-.27.09-.27-.09-.53.09-.09.18-.18.18-.27a7.87 7.87 0 00.35-2.43 6.7 6.7 0 01.18-1.41l.27-1.6a6.23 6.23 0 01.26-1.24l.27-1.15a2 2 0 000-.7 1.31 1.31 0 01.17-1.15c.27-.45.18-.89.36-1.24a1.67 1.67 0 01.26-.71 8 8 0 00.36-1.42A7.16 7.16 0 0139.1 20a.69.69 0 01.18-.45 5.49 5.49 0 00.72-1.4c.08-.27.08-.53.35-.71.09 0 .09-.18.09-.27a.66.66 0 01.09-.44 14.12 14.12 0 00.79-1.68c0-.09.09-.18.18-.35a11.06 11.06 0 00.71-1.42c.09-.18.17-.26.17-.35a1.66 1.66 0 01.36-.8 8.94 8.94 0 011.76-2.74 2.88 2.88 0 00.5-1.15 2.45 2.45 0 01.26-.45 10.64 10.64 0 001.07-1.06 7.81 7.81 0 001.15-1.24 9.86 9.86 0 011-1c.18-.18.62-.18.62-.62 0-.09 0-.09.09-.09.53-.17.88-.7 1.33-1.06a17.61 17.61 0 011.59-1.12c.18-.18.35-.26.44-.35a2.33 2.33 0 011.24-.62 11.27 11.27 0 012.3-.53 10.19 10.19 0 013.27.08 16.36 16.36 0 012.75.71 15.7 15.7 0 014.78 3 17.4 17.4 0 011.77 1.77 5.48 5.48 0 011 1.51l.26.53a2.71 2.71 0 01.45.88c0 .09.09.18.17.27h.18c0 .09.09.26.09.35-.18.35 0 .62.18 1l.01-.1c-.17.26 0 .35 0 .53h.09c-.09.09-.09.09-.09.17s-.08.53.18.71a1.08 1.08 0 01.36-.26c0 .17.08.35.08.53a1.82 1.82 0 01.36 1l.26 1.33.27 1.33a13.39 13.39 0 01.35 2 3.38 3.38 0 01-.35 1.86c0 .35.35.18.35.44a1.37 1.37 0 01-.13.53zM38.3 86.9l-.79-2.83c.09.09.17.27.26.36a.19.19 0 00.18.17 11.78 11.78 0 00-.44-1.6c0-.18-.18-.18-.27-.18a2.15 2.15 0 00-.09-1.06 2.1 2.1 0 00-.17-.71 12.35 12.35 0 00-.53-1.59A4.54 4.54 0 0036.8 81a.28.28 0 01.18.09v.45c0 .08.09.26.17.26a4.7 4.7 0 00.09 1.06 2.88 2.88 0 01.36 1.24 3.08 3.08 0 01-.36-.79l-1.06-3.72c-.53-1.68-1.06-3.28-1.42-5-.44-1.94-1-3.89-1.41-5.75l-1.59-7.52c-.27-1.33-.45-2.65-.71-4.07a17.28 17.28 0 01-.44-2.21c-.27-1.68-.45-3.36-.71-5a29.09 29.09 0 01-.44-3.09l-.54-5.22c-.08-1.42-.17-2.75-.26-4.07-.09-3.19-.27-6.46-.18-9.65a5.93 5.93 0 01.18-1.77v4.34a11.38 11.38 0 00.26 3 1.57 1.57 0 00-.17 1.07c.09 1.68.26 3.27.26 5 .18 2.75.45 5.58.8 8.32.18 1.68.44 3.36.71 5l.79 4.78c.18 1.24.45 2.48.71 3.72s.44 2.56.8 3.8a4.59 4.59 0 00.53 1.86v-.26c-.35-1.68-.71-3.37-1.06-5.14-.53-2.74-1-5.48-1.51-8.23l-.26-2.12c-.18-1.24-.36-2.39-.45-3.63-.08-.79-.26-1.68-.35-2.56s-.26-2-.26-2.92c-.27-2.57-.36-5.22-.54-7.88v-.8c0-.79-.08-1.59-.08-2.47 0-1.06 0-2.13.08-3.19 0-1.33.09-2.65.09-4.07.09-1 .27-2 .36-3.1a.27.27 0 01-.09-.17c-.09.17-.18.17-.27.26l.27-2.47c-.18.08-.18.17-.18.26a8.73 8.73 0 00-.26 1.5c-.27 1.69-.36 3.37-.53 5.14-.09 1.94-.09 3.8-.09 5.75s.09 3.89.17 5.84v1.06a44.13 44.13 0 01.36 4.87c.09 2.21.53 4.42.71 6.63l.26 2c.35 2.12.71 4.25 1.06 6.37a1.1 1.1 0 00.09.53c.09.71.36 1.42.44 2.13.27 1.59.62 3.18 1 4.86.44 2.21 1 4.34 1.5 6.55s1.15 4.42 1.77 6.73l1.33 4.6c.35 1.15.79 2.21 1.15 3.36-.06.17.07.34.24.34zm-9.64-60.7a3.91 3.91 0 01.09-1.42c-.09.54.09.98-.09 1.42zm.18-3.72a10.66 10.66 0 01-.18 2.39 15.25 15.25 0 00.09-2c0-.12.09-.21.09-.39zm0 .09A10.74 10.74 0 0129 20.8a4.12 4.12 0 01-.16 1.77zm.53-2.57a3.75 3.75 0 00.17-.71.65.65 0 00-.17.71zm0-2.57c.17 0 .17-.09.26-.27zm.7 16c.18 3.27.36 6.54.71 9.82.18 1.68.36 3.45.62 5.13.27 2.12.62 4.25 1 6.37.44 2.39.79 4.78 1.23 7.08.27 1.68.71 3.36 1.07 5 .26 1.15.44 2.3.7 3.36l1.07 4.16c.08.18.17.44.35.79-.09-.26 0-.35-.09-.44-.26-1.33-.53-2.74-.88-4.07-.18-1.06-.45-2.12-.71-3.18-.36-1.69-.71-3.46-1-5.14-.27-1.24-.45-2.39-.71-3.54L33.17 57a3.78 3.78 0 01-.17-.62c-.09-.79-.27-1.68-.36-2.56L31.58 47c-.09-1.24-.27-2.48-.44-3.72-.36-2.57-.45-5.22-.62-7.88-.09-1.5-.09-3-.18-4.51a71.28 71.28 0 01.09-7.61c.18-1.59.26-3.1.53-4.69l.27-1.77c-.27.18-.27.44-.36.71-.18 1-.35 1.86-.44 2.83a44.42 44.42 0 00-.44 6.9c-.09 2.13.01 4.16.08 6.2zm1-3.45H31v-.62a1.46 1.46 0 01.05.64zM31 31.07a.09.09 0 00.09-.09 1.31 1.31 0 00.09.62v.62h-.09a4.92 4.92 0 00-.09-1.15zm.44 6a13.73 13.73 0 01-.26-1.41 1.76 1.76 0 01.22 1.42zm0 2.31a7.12 7.12 0 01-.13-1.38 2.7 2.7 0 01.27.8v.79a.18.18 0 00-.18-.2zm.27 1.85a2.65 2.65 0 00-.09-.88h.09a2.65 2.65 0 01.09.88zm.09 1.51a.08.08 0 00.08-.09v.18c-.04-.08-.04-.08-.12-.08zm.35 1a9.56 9.56 0 01.18 1.59c-.18 0-.18-.17-.18-.26a6.18 6.18 0 01-.15-1.26zm.18 2.39a2.32 2.32 0 01.17 1.06c-.21-.37-.5-.64-.21-1.08zm.62 5.22a.3.3 0 00-.09-.26c.09.08.18.17.18.26.17 1 .35 2 .61 2.92 0 .09-.08.09-.08.18a2.58 2.58 0 01-.27-.89c-.13-.72-.22-1.43-.39-2.23zM34.5 72a3.91 3.91 0 00.26 1.5c0 .09.18.09.18.18A15.62 15.62 0 0034.5 72a26.05 26.05 0 00-1.06-4.16.94.94 0 00.09.53 14.87 14.87 0 00.44 2l.26 1.24c.09.16.18.39.27.39zm-.62-15.4a2.74 2.74 0 01.35 1.24c-.17.09-.17-.09-.26-.18.03-.4-.09-.75-.09-1.11zm.35 2.21c.09 0 0 0 .09.09h-.09zm1 16.29l-.27-1.42a2.12 2.12 0 00.25 1.37zm.17.62c0 .08 0 .08.09.08v-.08zm.8 2.47v.53h.09c0-.17-.09-.35-.09-.53a6.36 6.36 0 00-.62-1.68 9 9 0 00.42 1.54c0 .09.09.09.18.09zm0-11c0 .53 0 .53.18.8.07-.29.24-.55-.2-.82zm.8-20.37c.09.35.17.79.35 1.33 0-.71-.09-1.24-.09-1.69a3.08 3.08 0 00-.09-1.41c0 .35-.08.79-.08 1.24a1.08 1.08 0 00-.09.53zm.17 2.48a6.2 6.2 0 00.09 1.77 2.05 2.05 0 00-.11-1.77zm.09-6.38c.18-.26.18-.26 0-.53zm.18-1.59a1.23 1.23 0 00.09-1 1.23 1.23 0 00-.11 1zm.09 22.48c0 .35-.18.71.09 1.06a1.08 1.08 0 00-.11-1.06zm.15 2.19a.76.76 0 00-.08.27 19.68 19.68 0 00.08 2.21c0 .17.09.35.09.53a8.53 8.53 0 00-.09-3.01zm1.6 14.07c-.18-1.24-.36-2.48-.44-3.72s-.36-2.65-.45-4l-.26-2a1.2 1.2 0 00-.18-.53c-.18.26-.09.53-.09.79.09 1 .27 1.95.36 2.92.17 1.33.35 2.74.44 4.16a21.86 21.86 0 01.34 2.4 1.24 1.24 0 01.18.53 1.1 1.1 0 00.1-.53zM38 34.08l.09.08v-.08zm0 29.64c.09.88.09 1.68.18 2.48a4.76 4.76 0 00-.18-2.48zm0-30.26c0 .08.09.08.09.08v-.08l-.09-.09zm.44 54.42a.28.28 0 00-.09-.18.31.31 0 00.13.18zm.18-15.67l.09.09h.09c0-.09 0-.09-.09-.17.04.08-.05.08-.05.08zm1.68 12.84v-.8c-.09-1-.27-2-.35-2.92l-.54-4.16c-.17-1.15-.35-2.39-.53-3.54a101.18 101.18 0 001.46 11.42zM39.28 49a1.64 1.64 0 00.17-1.42.28.28 0 01-.17-.08 1.47 1.47 0 000 1.5zm-.18-2h.09a.27.27 0 00.09-.17.09.09 0 00-.09-.09h-.09zm.18-2.3a.31.31 0 00.17.09c.18-.09.09-.18.09-.35a.28.28 0 00-.09-.18c-.17.17-.26.26-.17.52zm0 8.5v.35a.54.54 0 00.09.36h.26c-.26-.09-.09-.36-.18-.62 0-.01 0-.1-.17-.01zm.09-.53l.08.09v-.09zm.17-28c.09 0 .27-.08.18-.26-.09.2-.18.29-.18.37zm0 18.23a.09.09 0 00.09.09v-.18a.09.09 0 00-.09.19zm0 11.86c0 .09.09.09.18.18v-.44h-.09c0 .19-.09.28-.09.37zm.09 28.49l-.09.09h.09zm.62-17.52c0-1.06-.09-2.12-.09-3.27-.09-.18-.09-.44-.17-.62s-.09-.18-.18-.27a1.15 1.15 0 00-.18.89c.09.62.09 1.33.18 2 .09 2.31.26 4.52.53 6.82.18 1.06.27 2.12.44 3.27.18 2.13.44 4.34.71 6.55.18 1.86.44 3.81.71 5.75l.26 1.68c.36 1.68.62 3.37 1 5 .17.88.44 1.86.62 2.83l.17.26c0 .09.09.09.18.09l.09-.09v-.35c-.27-1.33-.62-2.57-.8-3.89L42.64 87c-.09-.62-.09-1.24-.18-1.77l-.53-4c-.44-3.45-.79-7-1.24-10.44-.17-1.67-.35-3.35-.44-4.95zM40.52 89c-.18-.8-.27-1.42-.45-2a.28.28 0 00-.26-.26l.09-.09a.09.09 0 00-.09-.09v.18a8.47 8.47 0 00.71 2.26zm23-42.92c.09 0 .18.09.27-.09s.09-.09.09-.18a13.28 13.28 0 01.26-1.81.81.81 0 00.09-.45v-.17c.09-.36.09-.71.36-.89a.53.53 0 00.26-.53c-.09-.53.27-1 .18-1.5a17.27 17.27 0 00.62-3 17.1 17.1 0 01.62-2.13 2 2 0 00.17-1.23 4.39 4.39 0 00.45-1.86 6.82 6.82 0 01.17-1.42 26.46 26.46 0 00.53-2.74 6.52 6.52 0 00.09-2.3 3.4 3.4 0 01.18-1.33 1.23 1.23 0 00.09-1c-.27-.53.09-1.15 0-1.68-.09-.18 0-.36 0-.45v-.17c.35-.53.17-1.07.17-1.6a11.66 11.66 0 01-.12-1.76v-.35a9.43 9.43 0 000-1.59c0-.27-.09-.44-.09-.71a6.56 6.56 0 00-.27-2.66 9.31 9.31 0 00-.53-2.74 15.49 15.49 0 00-1.59-3.8 4.81 4.81 0 00-.62-.8 5.46 5.46 0 00-3.1-1.33 7.44 7.44 0 00-1.94-.09A3.86 3.86 0 0058 4a7.09 7.09 0 01-1.24.44 2 2 0 00-1.06.44c-.27.27-.53.36-.8.62-.18.09-.27-.08-.44-.08a4.92 4.92 0 01-.71.62 13.26 13.26 0 00-2.92 2.56c-.44.44-.8 1-1.24 1.42A22.82 22.82 0 0047 13.9a38.15 38.15 0 00-2.77 6.1c-.53 1.32-.88 2.65-1.32 4-.09.18-.18.35-.09.53l-.18.26a.09.09 0 00.09.09c-.18.53-.44 1.07-.62 1.6.35-.09.44-.45.71-.71l-.27 1.5c0 .09-.09.18-.18.27a.72.72 0 00.09-.62.31.31 0 01-.26.09c-.09.44-.27.88-.36 1.32l-.26 1.33c-.09.62-.18 1.15-.27 1.77a4.26 4.26 0 00-.09 1.06.09.09 0 01.09.09c.09-.09.09-.26.27-.18v.18c-.09 1.15-.27 2.3-.27 3.45v.18c-.17 1.06-.26 2.21-.35 3.27a.78.78 0 01-.27.62 3.35 3.35 0 00.18-1.32 2.58 2.58 0 01.13-1.16l-.09-.09c-.18 0-.18.17-.18.35-.08.44-.08.89-.17 1.33a5.8 5.8 0 01-.09 1.24 24.47 24.47 0 00-.22 2.55v.27a17.15 17.15 0 00-.09 3.73v.7a13.14 13.14 0 000 2.66c0 .88 0 1.86.09 2.74s0 1.86.09 2.83c0 .36.09.71.09 1.15a3.2 3.2 0 00.18.53 2.39 2.39 0 00.08-1.06c0-.35-.08-.71-.08-1.06v-.88a5.62 5.62 0 01.17 1.23 11.28 11.28 0 00.53 3.37v.17a.33.33 0 00.09.27 19.1 19.1 0 011.24 1.59c.35.44 1 .62 1.33 1.06l.26.18a2 2 0 01.45.27c.17.17.35.44.53.44.35 0 .26.35.53.44l.17-.18a6.52 6.52 0 002.75 1.33 1.69 1.69 0 001.34-.09 12.68 12.68 0 003.81-2.3 20.43 20.43 0 003.1-3.63A11.84 11.84 0 0058 57.08c.71-1.06 1.41-2.21 2-3.27a9.06 9.06 0 011-1.59 3.71 3.71 0 00.44-.71c.27-1.06 1.06-2 1.15-3.19v-.09c.31-.7.58-1.41.93-2.12zm-22.91 2c0 .53-.09 1.15-.09 1.68v.18s-.09 0-.09.08a4.63 4.63 0 01.18-1.96zm0-4.69a4.32 4.32 0 01-.18 2v-1.85c0-.08.09-.08.18-.17zm0 2.92v.79a.65.65 0 010-.81zm-.09 5a.31.31 0 00.09.18.09.09 0 01-.09-.09zm.17-9.2v-2.02c.27.45.09.89.09 1.33a1.29 1.29 0 01-.09.58zm.18-5.93l.09.09v-.09a.09.09 0 00-.09-.09zM41 20.27c.09-.09.18-.18.26-.18a8.13 8.13 0 00.54-1.76 10.8 10.8 0 00-.8 1.94zm.18 13.54c-.18.18-.18.27-.09.35.13-.08.13-.08.05-.35zm0 31.24c.26.44.26.44.08 1.5a2.44 2.44 0 00-.08-.71zm.08-37.79l.09.09v-.09zm.18 64.42a2.77 2.77 0 00.18 1.24c.14-.53-.13-.8-.22-1.24zm.09-60.17h.09v.09c-.13 0-.13 0-.13-.09zm.18 39.11a1 1 0 01.09.53c-.22-.15-.22-.26-.13-.53zM42 29.39a1.64 1.64 0 01-.26 1.15 2 2 0 01.26-1.15zm-.18 43.27a3.71 3.71 0 01-.08-.89c.17.09.08.27.08.44zm.27 1.24c-.09 0-.09 0-.09-.09l.09-.09zm0-56.19a2.61 2.61 0 00.53-1.24 1.55 1.55 0 00-.51 1.24zm0 10.53l.26-.71a.6.6 0 01-.24.71zm.09 46.45h-.09v-.17a.08.08 0 01.09.08zm.62 7.08c-.18-1.15-.27-2.21-.36-3.36a4 4 0 00-.17-1 11.21 11.21 0 01-.09-1.77c.09 0 .09 0 .17.08a9 9 0 00.09 1.51c.09 1.06.27 2.12.36 3.27.09.53.09 1.15.17 1.68-.24-.05-.15-.18-.15-.41zm-.18-65.3v-.09a.68.68 0 00.18-.71c.35-.26.35-.26.44-.8-.09 0-.09 0-.18.09l-.26.71c-.07.27-.25.44-.16.8zm.09 8.4c0-.17.09-.26.09-.35l.53-.71a1.86 1.86 0 01-.33 1.06.16.16 0 01-.27 0zm.35 58.76c0-.09-.09-.18-.17-.27.08 0 .08 0 .08-.08a.63.63 0 01.11.35zm.18-62.92a.09.09 0 00-.09.09c-.09.09-.09.18-.09.36.09-.09.18-.18.18-.27s.02-.09.02-.18zm.18 64.69v.09c-.09 0-.09-.09-.09-.18h.09zm.09 1.24c0-.09-.09-.09-.09-.18l.09-.09zm.88-65.57l-.8 2.21h-.08c0-.09-.09-.18 0-.26a8 8 0 01.79-2c.11-.02.11-.02.11.05zM43.53 14c.17-.09.17-.18.26-.27-.09.08-.26.08-.26.27zm.35 76.9c.09.44.09.79.35 1.06 0-.72 0-.72-.35-1.07zm.35-80.62a.09.09 0 00.09-.09.09.09 0 00-.09.08zm.09 82.56c.09.09 0 .18.09.27l.18.09a.68.68 0 01-.09-.36zm.09-72.65h.09v.09a.09.09 0 00-.09-.1zm.18 74.07l.17.44c.09-.36.09-.36-.17-.45zM44.68 12l.08.09A.33.33 0 0145 12zm.26-.26l.18-.18c.09-.09.09-.18.17-.18s.18-.17.18-.26c-.09.09-.09.18-.18.18s-.08.17-.17.17-.12.13-.18.22zm0 4.69v.09l.18-.18v-.14zM45 96.19a.31.31 0 01.09.18c0-.09.09-.09.17-.09l-.17-.17s-.09 0-.09.08zm.35-85.65c.36-.44.71-.89 1.07-1.42A32.76 32.76 0 0150.6 4.7l1.51-1.24c.18-.09.26-.18.26-.35-.26.08-.44.26-.7.35a27.71 27.71 0 00-3 2.65 28.46 28.46 0 00-2.92 3.54c-.19.27-.46.53-.37.89zm.36 3.89c-.09.18-.27.27-.09.53.29-.17.21-.35.12-.53zm0 2.39h.09v.09zm2-6c-.53.8-.88 1.6-1.32 2.3a.33.33 0 00-.09.27c-.18 0-.27.18-.27.35.27 0 .27-.17.27-.35a3.37 3.37 0 00.88-1.06 26.42 26.42 0 013.1-4 33.69 33.69 0 013.36-3l1.42-1.06c.09-.09.09-.18.17-.27-.17.09-.44.09-.62.18l-.7.44a29.34 29.34 0 00-6.14 6.18zm-1.5 5.49a.09.09 0 01.09-.09v.09a.31.31 0 00-.18.09zm1.15-2.48a5.51 5.51 0 01.44-.71 1.75 1.75 0 01-.26.71l-.54 1c-.17.35-.26.62-.44 1a.49.49 0 00-.26.44.72.72 0 01.09-.62c.26-.44.44-.88.61-1.24a1.72 1.72 0 00.42-.6zM46.8 9a.22.22 0 00.35 0 2.34 2.34 0 00.62-.71 13.86 13.86 0 011.15-1.15c.71-.71 1.42-1.42 2-2.13-.18-.09-.27.09-.44.27A14.15 14.15 0 0048 7.79c-.18.09-.18.27-.27.36a2.57 2.57 0 00-.44.53 2.17 2.17 0 00-.49.32 6.18 6.18 0 00-.18.62.46.46 0 00.18-.62zm1.33 3.54c.09-.09.17-.09.35-.09-.18.03-.26.12-.35.12zm.44-.62l.18-.17c-.09.09-.09.17-.18.26a.66.66 0 00-.09.44 1.12 1.12 0 01.09-.45zm.35-.35v.09c-.09 0-.09.09-.17.09zm.89-1a1.34 1.34 0 00-.36.35l-.53.62a1.12 1.12 0 01.89-.91zm.44-.71a1.9 1.9 0 00-.44.71c-.09-.39.09-.57.44-.65zm.53-.62h.09l-.09.09h-.09a.09.09 0 01.09-.03zm.89-5.13c.08.09.17 0 .26 0h-.26a2.15 2.15 0 00-.45.53c.36-.03.45-.12.45-.47zm4.07-.36h.09l-.09-.09zm6.46 48.91l.08.09c.09 0 .09 0 .09-.09zm1.06-2.21c-.18.08-.44 0-.36.35zm.26-4.45v.09h-.09zm.09 3.36a4 4 0 00.53-1.15.66.66 0 00-.35.18 1.87 1.87 0 00-.18.99zm1.15-2.83a40 40 0 001.77-5.84c.44-1.59.8-3.18 1.15-4.78a.44.44 0 00-.09-.62.76.76 0 01-.17.54l-.8 3.45c-.62 2.39-1.24 4.78-2 7.16l-.27 1a.77.77 0 00-.18.71c0-.18.27-.45.18-.71a1.67 1.67 0 00.41-.89zm-.17 5.05a.09.09 0 00-.09-.09zM71 31.33s0-.09-.08-.09-.09.18-.09.27a13.21 13.21 0 00-.53 1.77L69 38.94c-.27 1-.53 1.86-.8 2.83a34 34 0 01-1.59 5.14 28.76 28.76 0 01-1.61 3.8 4 4 0 00-.18.53.93.93 0 00.44-.35l1.07-2.48a21.14 21.14 0 01.88-2.12 18.85 18.85 0 001-2.92A62.62 62.62 0 0070 36.29c.36-1.42.71-2.92 1-4.34a1.63 1.63 0 000-.62zm-2.65 3.9a1.17 1.17 0 00-.44.7 15.66 15.66 0 01-.44 1.86c-.54 2.66-1.33 5.22-2 7.79-.09.09-.18.18 0 .26 0-.08.09-.17.09-.26a45.63 45.63 0 001.5-4.6l1.33-5.75a8.48 8.48 0 01.27-1.33c-.36.62-.45.8-.27 1.33zm-.18-1.86l-.09-.09a2.59 2.59 0 00-.26 1.42 2.58 2.58 0 00.39-1.33zm.18-1.86c0 .09 0 .09.09.09v-.09a.09.09 0 00-.09-.09zm.89-4.16a2.77 2.77 0 00.08.71 10.39 10.39 0 00.27-2.83c-.18 0-.18.09-.18.17a14.26 14.26 0 00-.13 1.95zm.44 14.42c-.09.27-.27.54-.36.8-.04-.44-.04-.44.4-.8zm.09-1.15v-.08a6.37 6.37 0 01-.09 1.23 2.42 2.42 0 01.13-1.15zm0-.08c.08-.54.26-.89.35-1.42a1.61 1.61 0 01-.31 1.42zm1.32-5.14c0-.09.18-.26.27-.44l-.8 3.27a2.23 2.23 0 01-.17.71c0 .09-.18.09-.27.18a10.44 10.44 0 00.53-2.21zm-.4-26.63c-.09.09-.09.09-.18.09a.28.28 0 00.18-.09zm.31 1.41v-.08.08zm.53 18.94c-.27.53-.27.53-.18.89a1 1 0 00.14-.89zm-.18-16.9c.18-.09.35-.18.35-.35-.3 0-.3.13-.39.35zm.09.8c.09 0 .09.08.18.08v-.35s-.09-.09-.09 0c-.22 0-.13.18-.13.25zm.18 14.33c0 .09-.09.18-.18.27.22 0 .14-.18.14-.27zM71.49 34h.09c-.09 0-.09 0-.09.09zm.35-20.27a.08.08 0 01-.09-.08l-.09.08v.18zm-.18 19.47a.32.32 0 00.09-.26v.26zm.54-11c-.36.26-.36.26-.27.53.27-.25.27-.25.27-.51zm-.27-6.46a.09.09 0 01.09.09v-.27c-.02.11-.02.11-.09.2zM72 32.39v.27a1.12 1.12 0 01-.09-.53c.2.09.09.18.09.26zm.35-13.8a14.26 14.26 0 01-.17-1.95.3.3 0 01-.09-.26A6.58 6.58 0 0072.2 19c.17-.06.17-.23.17-.41zm.27 8a1.4 1.4 0 01.09 1 12.78 12.78 0 00-.27 1.94 1 1 0 01-.26.62 5.6 5.6 0 00.17-1.15v-.53c.09-.53.09-1 .18-1.41a1.83 1.83 0 00.11-.51zm-.09-4.95l.09.09a.09.09 0 00.09-.09l-.09-.09a.09.09 0 00-.07.05zm.18 2.74h.08c-.08.36-.08.71-.17 1a3.62 3.62 0 01.11-1.04zm.17-3.8v.09l-.09-.09z" fill="#e2001a"/></svg>