<?xml version="1.0" standalone="no"?>
<!DOCTYPE svg PUBLIC "-//W3C//DTD SVG 20010904//EN"
 "http://www.w3.org/TR/2001/REC-SVG-20010904/DTD/svg10.dtd">
<svg version="1.0" xmlns="http://www.w3.org/2000/svg"
 width="1000.000000pt" height="1000.000000pt" viewBox="0 0 1000.000000 1000.000000"
 preserveAspectRatio="xMidYMid meet">
<metadata>
Created by potrace 1.11, written by Peter Selinger 2001-2013
</metadata>
<g transform="translate(0.000000,1000.000000) scale(0.100000,-0.100000)"
fill="#000000" stroke="none">
<path d="M1558 7689 c-102 -16 -154 -38 -242 -104 -118 -89 -331 -301 -351
-349 -9 -21 -34 -61 -56 -89 -23 -28 -50 -72 -61 -97 -11 -25 -44 -95 -74
-157 -30 -61 -54 -118 -54 -125 0 -7 -7 -22 -15 -32 -8 -11 -15 -27 -15 -37 0
-9 -8 -27 -19 -40 -10 -13 -26 -55 -35 -94 -10 -38 -28 -105 -42 -147 -13 -42
-24 -94 -24 -115 0 -21 -5 -56 -11 -78 -5 -22 -14 -65 -19 -95 -5 -30 -11 -66
-14 -80 -3 -14 -8 -55 -10 -91 -2 -36 -9 -84 -15 -106 -6 -22 -13 -97 -15
-166 -2 -68 -7 -131 -11 -138 -12 -19 -20 -424 -8 -442 12 -20 11 -79 -2 -116
-7 -22 -11 -42 -8 -45 6 -6 8 -75 16 -622 3 -150 8 -277 11 -283 4 -6 3 -11
-2 -11 -7 0 -19 38 -39 130 -2 8 -6 33 -9 55 -3 22 -14 77 -25 122 -11 44 -22
103 -25 130 -3 26 -10 65 -14 86 -7 31 -6 37 6 33 16 -6 19 21 4 44 -8 12 -10
10 -10 -9 0 -48 -14 -9 -26 72 -6 45 -18 120 -27 167 -40 214 -56 387 -38 406
6 5 6 23 1 44 l-9 35 2 -37 c2 -21 0 -38 -4 -38 -7 0 -17 62 -25 155 -3 33 -9
79 -14 103 -6 34 -5 42 8 42 11 0 13 8 9 37 -4 20 -10 39 -15 42 -4 3 -9 29
-9 56 -1 46 -1 47 7 15 l7 -35 2 32 c0 17 -5 38 -12 45 -7 7 -14 38 -16 68 -2
30 -5 78 -6 105 -5 86 -5 388 0 440 3 28 7 84 9 126 2 42 10 87 17 100 7 13
11 25 10 27 -1 1 2 26 8 55 6 28 15 81 22 117 7 36 34 112 60 169 27 57 49
107 49 111 0 4 -13 13 -29 20 -22 9 -34 9 -51 0 -12 -6 -27 -9 -34 -7 -17 7
-27 -1 -53 -38 -54 -78 -121 -223 -128 -280 -2 -11 -7 -38 -13 -60 -34 -129
-41 -171 -47 -275 -16 -280 -20 -516 -10 -725 9 -207 14 -299 19 -320 2 -12 7
-68 11 -125 3 -58 10 -121 15 -140 4 -19 11 -74 14 -121 3 -48 10 -99 16 -115
6 -15 14 -60 17 -98 3 -39 10 -80 15 -90 6 -10 12 -49 13 -85 2 -36 13 -104
24 -151 11 -47 23 -103 26 -125 4 -22 12 -54 20 -70 8 -17 16 -64 19 -105 2
-41 12 -89 20 -106 15 -30 38 -123 38 -154 -1 -26 106 -395 150 -518 10 -30
21 -71 23 -92 3 -21 14 -57 25 -81 11 -24 20 -51 20 -60 0 -10 13 -42 29 -72
16 -30 34 -85 40 -122 7 -37 20 -84 30 -104 10 -20 28 -70 40 -111 12 -41 31
-97 42 -125 10 -27 26 -83 34 -124 8 -40 17 -76 20 -80 2 -4 6 -20 9 -35 8
-44 32 -73 65 -78 17 -3 31 -2 31 2 0 4 23 8 51 9 55 2 87 22 113 71 15 27 13
95 -4 114 -9 12 -42 159 -55 251 -4 22 -8 47 -10 55 -2 8 -7 35 -10 60 -8 56
-15 64 -16 19 -1 -33 -1 -34 -9 -7 -4 15 -11 45 -14 65 -3 21 -8 49 -10 63 -3
14 -7 43 -11 65 -3 22 -7 54 -10 70 -3 17 -7 53 -9 80 -7 70 -16 138 -21 152
-2 7 0 15 5 18 6 4 10 -7 10 -24 0 -17 4 -31 8 -31 4 0 5 30 0 68 -4 37 -10
99 -14 137 -4 39 -9 72 -12 75 -5 5 5 -149 12 -188 3 -12 1 -22 -5 -22 -5 0
-9 12 -10 28 0 15 -2 36 -4 47 -2 11 -7 52 -10 90 -3 39 -7 79 -9 90 -2 11 -7
51 -11 88 -3 37 -8 78 -11 90 -2 12 -7 51 -10 87 -4 36 -8 79 -9 95 -10 93
-14 277 -6 260 5 -11 7 -28 5 -37 -1 -10 1 -18 6 -18 5 0 10 12 12 26 l3 27
50 -42 c74 -62 140 -97 240 -126 74 -22 103 -26 165 -21 109 7 163 25 275 91
122 71 217 161 330 310 106 141 294 469 301 525 3 19 21 71 45 130 11 25 28
76 40 114 14 47 23 65 29 56 10 -17 19 17 18 70 0 19 2 42 4 50 3 8 8 27 13
43 4 15 11 27 16 27 4 0 13 9 19 20 7 14 7 20 0 20 -5 0 -10 -7 -10 -17 0 -9
-3 -14 -6 -10 -8 8 6 48 15 43 9 -6 24 36 44 119 27 108 28 117 19 111 -6 -3
-13 -21 -16 -41 -4 -19 -10 -37 -15 -39 -4 -3 0 25 11 62 10 37 21 83 24 102
3 19 7 42 10 50 3 8 8 26 10 40 11 68 14 89 20 140 3 30 9 58 13 63 4 4 4 -17
1 -47 -3 -30 -3 -53 1 -51 3 3 9 28 12 58 4 29 10 67 13 85 5 24 3 32 -7 32
-18 0 -18 72 0 93 7 9 11 22 8 29 -4 8 -6 7 -6 -4 -1 -9 -6 -20 -11 -23 -14
-8 -3 54 12 72 7 9 7 17 1 26 -6 6 -8 21 -5 32 3 11 6 46 8 78 1 32 5 61 8 64
3 4 1 12 -4 18 -6 7 -7 29 -2 56 10 52 9 76 -7 150 -6 30 -14 69 -17 85 -2 16
-11 55 -19 87 -8 32 -15 60 -15 62 0 1 -9 5 -21 8 -12 3 -18 10 -14 17 3 6 1
27 -6 48 -7 20 -13 42 -13 47 -1 6 -22 49 -48 96 -70 127 -212 259 -354 329
-113 56 -288 86 -396 69z m-265 -228 c-86 -74 -186 -179 -247 -258 -26 -35
-50 -63 -53 -63 -5 0 46 73 84 121 36 45 169 178 218 218 76 61 74 49 -2 -18z
m574 26 c58 -6 125 -34 165 -69 61 -53 138 -248 154 -387 2 -24 6 -47 9 -50 5
-9 19 -314 17 -366 -11 -245 -28 -449 -42 -515 -6 -30 -15 -84 -20 -120 -9
-67 -27 -153 -54 -250 -8 -30 -18 -71 -21 -90 -3 -19 -10 -53 -15 -75 -14 -63
-22 -109 -22 -125 -1 -8 -7 -23 -16 -32 -8 -10 -16 -30 -17 -45 -2 -15 -7 -47
-10 -71 -4 -24 -8 -50 -9 -58 -1 -9 -7 -19 -14 -23 -13 -8 -47 -85 -62 -142
-30 -110 -200 -407 -330 -579 -69 -90 -138 -161 -196 -201 -54 -37 -163 -89
-186 -89 -27 0 -110 31 -140 51 -14 11 -31 19 -38 19 -22 0 -165 114 -203 162
-21 26 -37 49 -37 50 1 2 -4 17 -10 33 -7 17 -14 53 -17 80 -3 28 -8 54 -12
58 -4 4 -6 -7 -3 -25 6 -46 -6 -31 -13 16 -13 77 -22 683 -11 694 3 3 6 -16 6
-43 0 -60 9 -54 14 9 3 32 0 46 -8 46 -9 0 -12 13 -10 38 11 175 18 238 24
246 5 4 6 -8 5 -28 -2 -20 0 -36 4 -36 4 0 9 28 10 62 1 34 4 64 5 67 2 3 7
49 11 101 4 52 8 106 10 120 1 14 -3 28 -8 32 -7 4 -5 42 6 110 21 129 36 186
47 169 8 -14 20 17 20 53 0 15 -3 16 -15 6 -13 -11 -13 -8 -4 18 6 16 19 38
30 48 10 9 19 26 19 37 0 21 0 21 -16 1 -8 -10 -13 -14 -11 -9 3 6 17 50 32
99 95 307 226 552 393 735 70 77 202 184 219 179 4 -2 24 9 43 23 52 38 217
83 265 73 6 -2 33 -5 62 -7z m-374 -35 c-11 -9 -50 -39 -85 -67 -92 -72 -210
-197 -284 -302 -96 -135 -95 -116 2 32 73 111 333 356 377 355 7 -1 2 -8 -10
-18z m-213 -35 c0 -1 -37 -38 -82 -82 -46 -44 -69 -64 -53 -45 44 52 135 138
135 127z m-447 -642 c-3 -9 -8 -14 -10 -11 -3 3 -2 9 2 15 9 16 15 13 8 -4z
m-619 -64 c-3 -28 -10 -49 -14 -46 -4 2 -2 27 4 54 13 64 19 59 10 -8z m2226
4 c0 -19 -2 -35 -4 -35 -2 0 -6 16 -8 35 -2 19 0 35 4 35 4 0 8 -16 8 -35z
m-2327 -85 c-3 -22 -1 -45 5 -52 6 -8 7 -29 2 -53 l-8 -40 -2 40 c-3 33 -4 35
-7 12 -3 -16 -1 -36 2 -45 11 -26 5 -132 -8 -155 -9 -15 -9 -21 1 -24 19 -7
14 -23 -5 -17 -15 5 -16 4 -3 -5 9 -5 15 -22 14 -38 -1 -15 -4 -84 -5 -153
l-3 -125 -6 150 c-5 129 -6 116 -6 -93 1 -133 -3 -242 -8 -242 -9 0 -1 632 9
720 4 30 12 58 18 62 9 6 9 8 0 8 -6 0 -10 8 -8 18 11 54 16 72 19 72 2 0 2
-18 -1 -40z m665 15 c-6 -14 -13 -23 -15 -21 -5 5 15 46 22 46 3 0 -1 -11 -7
-25z m-573 -7 c-4 -14 -13 -89 -22 -188 -7 -90 -7 -396 1 -565 11 -240 25
-448 33 -490 3 -16 6 -41 8 -55 1 -14 5 -47 9 -75 3 -27 8 -71 10 -96 3 -25
12 -86 20 -135 14 -80 27 -164 42 -279 5 -35 52 -293 69 -380 3 -16 14 -77 25
-135 11 -58 40 -197 65 -309 25 -112 44 -208 43 -213 -3 -9 -50 179 -99 397
-24 107 -56 266 -68 340 -6 33 -13 76 -16 95 -4 19 -15 87 -26 150 -25 143
-24 141 -44 275 -9 61 -18 121 -20 135 -13 86 -16 112 -35 310 -25 260 -35
470 -35 755 0 260 17 475 36 475 5 0 7 -6 4 -12z m2088 -370 c-3 -29 -7 -55
-10 -58 -6 -6 -2 91 4 103 9 16 10 4 6 -45z m154 -65 c-3 -10 -5 -4 -5 12 0
17 2 24 5 18 2 -7 2 -21 0 -30z m-81 -230 c-4 -16 -8 -37 -10 -48 -22 -117
-110 -477 -145 -595 -27 -90 -139 -362 -157 -380 -8 -8 1 19 19 60 74 161 122
313 206 656 77 311 83 334 88 334 3 0 2 -12 -1 -27z m-2269 -35 c-3 -7 -5 -2
-5 12 0 14 2 19 5 13 2 -7 2 -19 0 -25z m2116 -88 c-3 -11 -7 -20 -9 -20 -2 0
-4 9 -4 20 0 11 4 20 9 20 5 0 7 -9 4 -20z m-2116 -12 c-3 -8 -6 -5 -6 6 -1
11 2 17 5 13 3 -3 4 -12 1 -19z m10 -115 c-2 -16 -4 -5 -4 22 0 28 2 40 4 28
2 -13 2 -35 0 -50z m-20 42 c0 -8 -4 -15 -9 -15 -4 0 -8 7 -8 15 0 8 4 15 8
15 5 0 9 -7 9 -15z m2052 -217 c-63 -249 -78 -297 -93 -313 -5 -6 -6 -3 -2 10
13 34 93 336 110 412 16 74 32 123 40 123 2 0 -22 -104 -55 -232z m76 195
c-20 -114 -84 -357 -92 -350 -2 3 7 47 21 98 14 52 27 103 29 114 2 11 12 55
22 98 19 80 32 105 20 40z m-2126 -90 c1 -36 4 -70 7 -74 2 -4 1 -10 -4 -13
-5 -3 -9 14 -11 37 -1 23 -4 59 -5 80 -2 20 0 37 4 37 4 0 8 -30 9 -67z m2258
25 c-3 -8 -6 -5 -6 6 -1 11 2 17 5 13 3 -3 4 -12 1 -19z m-10 -40 c-3 -8 -6
-5 -6 6 -1 11 2 17 5 13 3 -3 4 -12 1 -19z m-7 -38 c-6 -11 -13 -20 -16 -20
-2 0 0 9 6 20 6 11 13 20 16 20 2 0 0 -9 -6 -20z m-2209 -52 c1 -32 0 -60 -3
-63 -2 -3 -6 25 -7 62 -1 37 0 65 3 63 2 -3 6 -31 7 -62z m-19 -80 c3 -43 2
-78 -2 -78 -3 0 -7 37 -8 82 -4 103 5 100 10 -4z m27 -45 l-2 -48 -6 40 c-7
38 -5 55 5 55 2 0 3 -21 3 -47z m-18 -65 c0 -13 2 -30 3 -38 2 -8 7 -51 10
-95 8 -92 9 -95 30 -230 9 -55 23 -149 31 -210 8 -60 17 -119 20 -130 2 -11 9
-45 14 -75 13 -67 69 -348 82 -410 5 -25 12 -58 15 -75 3 -16 26 -113 50 -215
25 -102 47 -192 49 -200 12 -56 76 -278 94 -322 6 -16 8 -28 5 -28 -3 0 -2 -6
3 -12 4 -7 9 -20 10 -28 8 -41 41 -132 43 -115 l1 20 8 -20 c5 -11 4 -22 0
-26 -5 -3 -4 -20 1 -39 5 -18 8 -35 6 -37 -11 -11 -163 516 -227 782 -11 50
-23 99 -26 110 -2 11 -9 38 -13 60 -5 22 -16 72 -25 110 -31 138 -88 430 -105
539 -6 38 -13 72 -14 75 -2 3 -7 35 -11 71 -4 36 -8 67 -10 70 -2 3 -6 28 -9
55 -4 28 -9 61 -11 75 -2 14 -6 56 -10 95 -4 38 -8 72 -10 75 -1 3 -6 43 -10
90 -4 47 -9 88 -12 93 -2 4 1 7 6 7 6 0 11 -10 12 -22z m1999 -28 c-6 -23 -13
-40 -15 -38 -2 2 1 23 7 46 6 24 13 41 15 38 2 -2 -1 -23 -7 -46z m-1970 30
c0 -5 -5 -10 -11 -10 -5 0 -7 5 -4 10 3 6 8 10 11 10 2 0 4 -4 4 -10z m5 -100
c4 -41 5 -73 2 -70 -3 3 -9 39 -13 80 -3 41 -4 73 -1 70 3 -3 8 -39 12 -80z
m535 30 c0 -5 -5 -10 -11 -10 -5 0 -7 5 -4 10 3 6 8 10 11 10 2 0 4 -4 4 -10z
m-133 -132 c-2 -13 -4 -3 -4 22 0 25 2 35 4 23 2 -13 2 -33 0 -45z m1487 28
c-3 -15 -8 -25 -11 -23 -2 3 -1 17 3 31 3 15 8 25 11 23 2 -3 1 -17 -3 -31z
m-1869 -76 c6 -61 18 -158 31 -240 3 -19 3 -32 0 -29 -7 6 -31 158 -42 254 -3
28 -7 55 -9 62 -3 10 5 26 11 20 2 -1 6 -32 9 -67z m507 -26 c-3 -17 -8 -22
-15 -15 -5 5 -6 22 -3 37 9 35 25 14 18 -22z m1310 -36 c-6 -6 -7 0 -4 19 5
21 7 23 10 9 2 -10 0 -22 -6 -28z m-1425 -75 c-3 -10 -5 -2 -5 17 0 19 2 27 5
18 2 -10 2 -26 0 -35z m110 -175 c-3 -8 -6 -5 -6 6 -1 11 2 17 5 13 3 -3 4
-12 1 -19z m-459 -19 c-3 -8 -7 -3 -11 10 -4 17 -3 21 5 13 5 -5 8 -16 6 -23z
m57 -312 c9 -49 15 -91 12 -93 -5 -6 -11 22 -47 231 -11 60 -19 117 -19 125 1
14 15 -53 54 -263z m22 -139 c-3 -7 -5 -2 -5 12 0 14 2 19 5 13 2 -7 2 -19 0
-25z m417 0 c3 -18 7 -98 10 -178 3 -80 8 -156 10 -170 2 -14 7 -50 10 -80 6
-57 14 -120 22 -180 3 -19 9 -75 14 -125 19 -181 19 -182 45 -370 2 -16 9 -73
15 -125 11 -100 57 -352 90 -505 23 -103 25 -124 10 -109 -14 14 -87 368 -111
539 -24 173 -27 198 -34 260 -3 28 -8 70 -11 95 -3 25 -7 59 -9 75 -2 17 -6
62 -10 100 -6 73 -9 100 -20 175 -3 25 -8 61 -10 80 -2 19 -6 58 -9 85 -13
107 -16 144 -21 245 -3 58 -8 131 -10 163 -5 60 11 80 19 25z m-395 -77 c6
-26 6 -40 0 -34 -5 5 -11 29 -14 54 -5 51 0 43 14 -20z m266 -20 c3 -5 2 -12
-3 -15 -5 -3 -9 1 -9 9 0 17 3 19 12 6z m-241 -106 c5 -22 4 -26 -4 -15 -5 8
-10 24 -10 34 0 26 6 18 14 -19z m243 -37 c-3 -7 -5 -2 -5 12 0 14 2 19 5 13
2 -7 2 -19 0 -25z m-69 -43 c-3 -3 -9 2 -12 12 -6 14 -5 15 5 6 7 -7 10 -15 7
-18z m75 5 c-3 -11 -7 -20 -9 -20 -2 0 -4 9 -4 20 0 11 4 20 9 20 5 0 7 -9 4
-20z m-216 -92 c-3 -8 -6 -5 -6 6 -1 11 2 17 5 13 3 -3 4 -12 1 -19z m32 -128
c0 -8 -7 8 -15 35 -7 28 -13 57 -13 65 0 8 7 -7 15 -35 7 -27 13 -57 13 -65z
m205 20 c4 -36 11 -99 16 -140 6 -41 12 -102 15 -135 3 -33 8 -71 10 -85 2
-14 6 -50 9 -80 l5 -55 -14 65 c-7 36 -16 97 -19 135 -6 70 -14 137 -22 185
-8 49 -16 185 -11 180 3 -3 8 -34 11 -70z m81 -435 c25 -207 27 -219 33 -230
3 -7 1 -7 -6 0 -5 6 -13 33 -17 60 -3 28 -8 65 -11 83 -10 76 -13 101 -18 167
-9 107 1 65 19 -80z m-88 -377 c-3 -8 -6 -5 -6 6 -1 11 2 17 5 13 3 -3 4 -12
1 -19z m111 -64 c-3 -14 -5 -12 -10 9 -3 19 -2 25 4 19 6 -6 8 -18 6 -28z
m220 -219 c-3 -3 -9 2 -12 12 -6 14 -5 15 5 6 7 -7 10 -15 7 -18z"/>
<path d="M1230 7146 c0 -7 -7 -19 -15 -26 -9 -7 -25 -27 -36 -44 -12 -18 -1
-10 25 19 46 51 54 65 36 65 -5 0 -10 -6 -10 -14z"/>
<path d="M1081 6919 c-23 -40 -40 -77 -38 -83 4 -10 43 58 74 127 21 48 6 29
-36 -44z"/>
<path d="M906 6511 c-20 -63 -20 -87 0 -41 23 52 34 90 24 90 -4 0 -15 -22
-24 -49z"/>
<path d="M821 6194 c0 -11 3 -14 6 -6 3 7 2 16 -1 19 -3 4 -6 -2 -5 -13z"/>
<path d="M797 6086 c-5 -15 -6 -31 -3 -34 8 -8 18 25 14 45 -3 13 -6 10 -11
-11z"/>
<path d="M742 5490 c0 -14 2 -19 5 -12 2 6 2 18 0 25 -3 6 -5 1 -5 -13z"/>
<path d="M725 5180 c3 -5 8 -10 11 -10 2 0 4 5 4 10 0 6 -5 10 -11 10 -5 0 -7
-4 -4 -10z"/>
<path d="M724 5086 c-3 -8 -4 -29 -2 -48 3 -29 4 -27 8 15 5 48 3 58 -6 33z"/>
<path d="M730 4705 c0 -19 4 -35 8 -35 4 0 6 16 4 35 -2 19 -6 35 -8 35 -2 0
-4 -16 -4 -35z"/>
<path d="M93 6420 c0 -30 2 -43 4 -27 2 15 2 39 0 55 -2 15 -4 2 -4 -28z"/>
<path d="M211 6003 c-1 -12 4 -25 9 -28 12 -7 12 2 0 30 -8 19 -9 19 -9 -2z"/>
<path d="M7425 5858 c-15 -12 -39 -47 -52 -77 -13 -31 -35 -77 -49 -103 -13
-26 -35 -90 -49 -143 -14 -52 -30 -107 -36 -122 -14 -38 -39 -171 -39 -210 0
-18 8 -48 17 -68 l17 -36 28 53 27 53 1 -45 c1 -40 2 -43 14 -27 7 9 19 17 27
17 11 0 11 2 -1 10 -12 8 -12 16 4 62 11 29 28 71 38 93 11 22 22 53 24 68 2
16 10 48 18 70 8 23 17 60 20 82 4 21 13 46 20 55 8 8 25 38 40 67 14 28 37
60 50 71 35 27 28 70 -18 117 -41 41 -62 43 -101 13z"/>
<path d="M248 5493 c5 -21 7 -23 10 -9 2 10 0 22 -6 28 -6 6 -7 0 -4 -19z"/>
<path d="M2297 5471 c-4 -17 -3 -21 5 -13 5 5 8 16 6 23 -3 8 -7 3 -11 -10z"/>
<path d="M2281 5426 c-7 -8 -8 -17 -3 -20 6 -3 13 1 16 10 9 23 2 28 -13 10z"/>
<path d="M281 5193 c-1 -12 4 -25 9 -28 12 -7 12 2 0 30 -8 19 -9 19 -9 -2z"/>
<path d="M8758 5115 c-122 -33 -253 -148 -324 -284 -25 -47 -60 -107 -79 -133
-18 -26 -41 -69 -51 -95 -21 -54 -48 -97 -99 -157 -110 -127 -282 -368 -370
-516 -21 -36 -46 -74 -55 -85 -10 -11 -22 -35 -28 -52 -6 -18 -22 -48 -36 -66
-13 -17 -38 -62 -54 -98 -17 -37 -35 -70 -41 -73 -5 -4 -25 -34 -43 -68 -35
-66 -157 -198 -182 -198 -12 0 -16 11 -15 48 0 26 -2 56 -4 67 -3 11 -8 43
-12 72 -5 39 -10 50 -21 46 -10 -4 -14 3 -15 23 -1 16 -3 45 -6 64 -11 86 -13
354 -3 360 14 8 18 33 24 150 3 52 8 140 12 195 13 202 11 266 -8 304 -22 43
-23 89 -3 111 15 16 10 60 -6 60 -5 0 -9 10 -9 23 0 30 -63 98 -104 112 -30
10 -35 9 -54 -12 -12 -13 -24 -41 -28 -61 -4 -20 -13 -50 -21 -65 -12 -24 -18
-59 -25 -143 -2 -17 -10 -24 -38 -29 -34 -6 -116 -40 -195 -81 -304 -157 -455
-248 -539 -323 -46 -41 -90 -71 -106 -71 -22 0 -247 135 -288 174 -71 67 -88
106 -86 206 1 125 19 183 74 239 86 90 143 126 220 141 75 14 141 -3 180 -46
16 -19 30 -39 30 -44 0 -13 27 -13 35 0 60 97 -126 181 -329 149 -84 -14 -176
-52 -286 -121 -139 -87 -180 -128 -195 -195 -4 -19 -13 -33 -21 -33 -9 0 -72
-28 -142 -63 -251 -125 -443 -235 -521 -299 -94 -77 -136 -107 -150 -107 -8
-1 -45 17 -83 39 -39 22 -72 40 -74 40 -2 0 -28 16 -59 35 -97 62 -183 172
-163 209 6 11 8 43 4 78 -6 47 -3 73 14 124 18 54 31 73 87 124 36 33 89 71
119 86 105 51 218 34 266 -40 28 -44 50 -43 59 3 6 29 3 39 -20 62 -52 52
-205 78 -324 57 -84 -16 -196 -64 -292 -126 -146 -94 -182 -144 -200 -272 -4
-25 -11 -50 -16 -56 -4 -6 -27 -55 -49 -110 -23 -54 -63 -144 -89 -199 -44
-92 -72 -159 -137 -335 -14 -36 -27 -92 -30 -124 -4 -54 -20 -117 -45 -186 -5
-14 -11 -55 -14 -92 -2 -37 -10 -78 -18 -90 -19 -32 -35 -113 -46 -244 -6 -64
-19 -136 -31 -170 -12 -32 -23 -65 -25 -72 -3 -9 -15 -7 -44 9 -38 20 -46 34
-57 99 -2 14 -6 40 -10 58 -7 44 -50 128 -57 111 -2 -8 -8 -1 -12 16 -3 17
-11 43 -17 58 -8 20 -8 35 0 51 12 28 -3 99 -34 156 -18 34 -26 120 -11 120
12 0 8 19 -10 47 -10 14 -18 33 -20 42 -5 36 -4 301 1 310 3 5 2 21 -4 35 -6
16 -6 27 0 31 15 9 12 36 -6 56 -14 15 -17 44 -18 156 -1 76 3 152 9 169 10
29 10 117 0 322 -4 94 -20 126 -79 157 -28 15 -40 17 -54 9 -48 -30 -121 -239
-147 -419 -8 -59 -24 -113 -35 -120 -10 -6 -16 13 -24 75 -11 79 -30 139 -64
210 -42 86 -82 119 -172 144 -48 13 -76 14 -162 7 -9 0 -46 -29 -81 -63 -35
-35 -76 -71 -90 -81 -62 -41 -181 -350 -202 -522 -3 -27 -15 -79 -27 -114 -17
-54 -20 -89 -21 -240 0 -249 16 -359 68 -478 36 -79 84 -134 157 -178 112 -67
197 -80 310 -47 62 18 153 85 183 135 9 16 30 43 46 61 15 18 40 66 55 107 14
41 41 101 59 134 18 33 36 78 40 100 4 22 10 44 13 50 4 5 7 15 8 20 0 6 2 15
2 22 2 8 8 8 27 0 25 -12 31 -37 24 -97 -7 -57 6 -174 27 -249 8 -31 22 -85
30 -120 8 -35 16 -67 19 -71 2 -4 7 -27 10 -51 7 -57 24 -118 41 -149 7 -14
37 -77 67 -140 29 -63 69 -131 88 -151 33 -35 37 -37 124 -43 104 -9 141 2
194 56 76 77 110 193 126 428 3 47 10 108 15 135 15 82 20 154 10 160 -12 8
-17 -3 -24 -60 -4 -27 -11 -81 -16 -120 -6 -38 -11 -82 -12 -97 -1 -15 -6 -24
-11 -21 -8 5 0 139 9 154 1 3 6 32 9 65 4 32 13 93 21 134 9 41 17 88 19 103
1 16 8 34 14 40 6 6 11 27 11 46 0 19 7 59 16 90 9 31 25 88 36 126 10 39 23
79 28 90 5 11 14 38 21 60 6 22 15 49 20 60 4 11 11 31 15 45 4 14 15 37 25
52 11 14 19 32 19 40 0 7 11 35 25 62 14 27 25 55 25 61 0 6 24 -11 53 -38 70
-67 182 -140 297 -193 101 -48 190 -101 190 -114 0 -4 -47 -55 -104 -113 -57
-58 -112 -121 -121 -140 -9 -19 -31 -52 -49 -73 -18 -22 -44 -64 -58 -95 -14
-31 -48 -90 -75 -130 -62 -94 -71 -115 -78 -186 -4 -32 -15 -87 -25 -123 -10
-36 -21 -86 -24 -112 -3 -26 -9 -55 -15 -66 -22 -42 4 -199 59 -345 26 -70 79
-118 174 -162 158 -73 267 -79 430 -24 105 36 224 108 301 184 59 58 81 90
132 190 33 66 66 138 73 160 7 22 17 49 23 60 6 11 12 37 13 59 2 33 0 37 -17
33 -18 -5 -19 1 -20 71 0 80 -5 130 -14 171 -5 20 -3 23 14 18 31 -8 28 37 -4
65 -13 11 -22 25 -18 30 3 6 -4 23 -16 39 -11 15 -21 37 -21 47 0 11 -6 25
-14 31 -8 7 -18 25 -21 41 -4 16 -20 46 -37 67 -16 21 -53 80 -80 132 -28 51
-68 113 -89 138 -22 24 -39 53 -39 65 0 57 249 238 536 389 84 44 94 46 94 22
0 -33 55 -112 110 -159 76 -65 141 -105 289 -179 69 -35 139 -73 155 -83 l28
-20 -111 -113 c-61 -63 -120 -132 -131 -154 -11 -22 -36 -58 -55 -79 -19 -22
-37 -52 -40 -67 -4 -15 -31 -65 -62 -111 -70 -106 -91 -154 -97 -225 -3 -32
-14 -85 -26 -117 -11 -33 -20 -73 -20 -90 0 -17 -6 -51 -13 -76 -19 -62 -12
-137 25 -260 46 -158 75 -195 192 -249 196 -91 335 -88 536 11 127 62 222 139
286 233 28 40 119 230 134 280 7 22 16 44 21 50 5 5 9 26 9 48 0 32 -3 37 -18
33 -16 -5 -18 0 -19 36 -1 95 -7 175 -14 201 -8 27 -6 29 16 23 22 -6 23 -5
14 26 -5 18 -16 38 -24 44 -8 6 -15 20 -15 31 0 11 -7 26 -15 33 -8 7 -15 17
-15 22 0 17 -62 143 -81 163 -20 22 -54 81 -92 160 -13 28 -46 76 -72 109
l-48 58 16 33 c20 42 119 121 272 217 66 41 125 77 130 79 6 2 28 15 50 29 22
14 42 25 45 25 3 0 26 12 52 27 25 16 58 32 72 38 25 9 26 8 22 -18 -3 -15 -7
-47 -11 -72 -3 -25 -8 -56 -10 -70 -2 -14 -7 -56 -11 -95 -3 -38 -8 -79 -11
-90 -3 -11 -7 -85 -9 -165 -2 -80 -4 -170 -5 -200 -3 -109 12 -244 32 -278 10
-18 19 -42 19 -53 0 -37 117 -266 145 -285 31 -20 165 -54 215 -54 43 0 127
39 156 71 50 57 153 211 193 289 24 47 58 112 76 145 18 33 45 89 61 125 16
36 47 94 69 130 23 36 58 97 79 135 54 99 106 185 113 185 3 0 2 -37 -3 -82
-16 -164 -9 -264 25 -362 52 -149 94 -206 206 -280 172 -115 314 -114 490 2
92 61 251 222 314 320 28 42 55 82 59 87 4 6 43 57 87 115 44 58 93 118 109
135 15 16 56 64 89 105 34 41 91 107 128 145 115 119 159 169 158 180 0 5 -3
4 -6 -2 -2 -7 -10 -13 -16 -13 -6 0 -48 -38 -94 -85 -84 -86 -141 -122 -68
-43 89 95 164 162 241 215 90 61 118 97 81 107 -42 11 -118 -37 -237 -147 -29
-27 -35 -29 -38 -15 -2 10 7 28 20 41 25 26 102 79 131 90 9 3 17 10 17 15 0
5 14 15 30 22 42 17 40 41 -2 33 -42 -8 -67 -20 -98 -48 -14 -13 -49 -36 -78
-51 -59 -32 -259 -224 -322 -309 -22 -30 -55 -66 -74 -80 -19 -14 -61 -58 -93
-97 -32 -39 -66 -79 -75 -89 -9 -10 -49 -62 -90 -116 -103 -138 -99 -133 -248
-284 -134 -135 -203 -186 -239 -174 -10 3 -44 34 -76 68 -31 34 -67 73 -80 87
-20 21 -23 32 -18 71 4 39 2 49 -20 72 -36 40 -45 131 -17 184 18 36 19 44 7
84 -17 59 -9 113 18 117 11 1 51 -9 89 -22 93 -33 158 -29 248 14 39 19 70 40
73 52 5 13 12 17 25 13 23 -7 130 67 130 90 0 9 -6 12 -17 8 -20 -8 -16 -1 39
75 36 48 58 69 43 40 -4 -7 2 -2 13 11 11 14 17 33 14 47 -2 14 3 30 13 40 9
9 22 26 30 38 20 31 46 147 40 176 -3 14 -7 46 -10 72 -6 71 -38 130 -107 200
-45 45 -78 68 -113 81 -58 20 -82 20 -147 2z m-28 -62 c0 -5 -12 -16 -25 -26
-33 -24 -53 -12 -23 13 23 20 48 26 48 13z m65 -53 c-4 -7 17 -8 63 -4 57 6
75 3 101 -12 79 -47 88 -175 22 -349 -46 -123 -56 -140 -130 -223 -85 -97
-259 -192 -352 -192 -15 0 -37 8 -50 19 -22 18 -23 20 -11 84 7 37 26 100 42
140 16 41 31 88 32 105 1 21 14 42 35 63 19 17 33 41 33 53 0 13 11 44 25 70
31 59 19 59 -18 1 -16 -25 -35 -45 -42 -45 -21 0 56 109 77 110 16 0 118 106
118 122 0 5 11 13 25 18 25 9 35 30 14 30 -5 0 -7 5 -4 10 3 6 11 10 16 10 6
0 7 -5 4 -10z m-49 -37 c-10 -10 -19 5 -10 18 6 11 8 11 12 0 2 -7 1 -15 -2
-18z m-6228 -271 c-7 -10 -23 -28 -35 -42 -13 -14 -30 -34 -37 -45 -8 -11 -18
-16 -23 -11 -4 5 -2 11 5 13 6 3 12 10 12 16 0 7 16 27 35 46 19 19 35 38 35
43 0 5 5 6 10 3 8 -5 7 -12 -2 -23z m236 -2 c46 -17 113 -172 147 -340 7 -36
21 -79 31 -95 17 -29 17 -33 -2 -94 -11 -34 -20 -85 -20 -112 0 -29 -8 -65
-19 -87 -11 -21 -23 -56 -26 -77 -4 -22 -13 -51 -21 -65 -7 -14 -18 -47 -24
-75 -30 -138 -150 -366 -243 -462 -87 -90 -108 -90 -154 1 -14 27 -35 63 -46
78 -15 20 -20 40 -18 75 5 119 4 223 -3 288 -5 39 -7 86 -6 105 1 19 2 46 2
60 0 57 54 291 85 365 18 44 33 91 33 105 0 27 23 75 97 203 44 76 88 120 128
130 32 8 32 7 59 -3z m-154 -36 c0 -4 -12 -21 -27 -39 -16 -18 -36 -45 -46
-60 -11 -14 -21 -24 -24 -22 -5 5 40 81 65 110 15 17 32 23 32 11z m4746 -166
c-3 -35 -9 -108 -12 -163 -4 -55 -8 -111 -9 -125 -2 -14 -4 -54 -4 -89 -1 -35
-4 -62 -7 -58 -3 3 -7 99 -8 213 -2 172 0 215 13 246 23 56 34 46 27 -24z
m2260 -34 c-36 -37 -63 -70 -61 -75 3 -4 -4 -7 -15 -6 -11 1 -20 4 -20 8 0 13
133 139 147 139 8 0 -15 -30 -51 -66z m-7236 15 c-7 -11 -14 -18 -17 -15 -3 3
0 12 7 21 18 21 23 19 10 -6z m6554 -51 c-19 -34 -57 -79 -74 -88 -28 -15 -25
-10 20 39 22 23 40 47 40 52 0 5 5 9 11 9 5 0 7 -6 3 -12z m-694 -22 c0 -2
-13 -19 -30 -37 -34 -39 -41 -27 -8 14 19 23 38 35 38 23z m-5923 -68 c-3 -7
-5 -2 -5 12 0 14 2 19 5 13 2 -7 2 -19 0 -25z m7200 -2 c-8 -11 -24 -26 -36
-32 -11 -6 -30 -19 -41 -29 -11 -10 -23 -16 -26 -13 -9 10 90 106 104 101 10
-5 10 -9 -1 -27z m-5496 -90 c-16 -36 -34 -66 -40 -66 -11 0 6 48 42 118 34
65 32 23 -2 -52z m5609 89 c0 -2 -50 -64 -111 -137 -61 -73 -116 -140 -122
-148 -74 -94 -251 -300 -254 -296 -3 3 12 26 33 53 43 52 42 51 114 143 67 86
68 87 120 150 25 30 50 60 55 66 6 6 42 48 79 93 60 70 86 94 86 76z m-1470
-19 c0 -2 -8 -10 -17 -17 -16 -13 -17 -12 -4 4 13 16 21 21 21 13z m-37 -63
c-9 -25 -45 -73 -54 -73 -10 0 43 89 53 90 4 0 4 -8 1 -17z m-5842 -16 c-10
-9 -11 -8 -5 6 3 10 9 15 12 12 3 -3 0 -11 -7 -18z m7071 -67 c-31 -31 -42
-36 -42 -21 0 14 64 73 68 61 2 -5 -10 -23 -26 -40z m-4432 -5 c-13 -14 -31
-25 -39 -25 -11 0 -6 8 14 25 39 32 55 32 25 0z m1480 0 c-13 -14 -30 -25 -37
-25 -8 0 -2 11 14 25 37 32 53 32 23 0z m1712 -62 c-10 -16 -60 -101 -111
-190 -51 -90 -97 -165 -102 -169 -14 -8 30 78 96 186 30 50 55 93 55 95 0 11
66 105 73 105 5 0 0 -12 -11 -27z m1169 -17 c-12 -12 -19 -25 -16 -28 3 -2 -2
-5 -10 -5 -8 0 -15 5 -15 11 0 16 54 68 58 56 2 -6 -5 -22 -17 -34z m-51 -54
c0 -9 -38 -52 -45 -52 -6 0 6 32 18 48 11 14 27 16 27 4z m-73 -79 c-4 -3 -1
-13 6 -21 8 -11 8 -14 0 -9 -6 4 -14 3 -18 -3 -3 -5 -15 -15 -27 -21 -16 -9
-19 -8 -13 3 11 18 47 58 53 58 3 0 2 -3 -1 -7z m-4496 -44 c-13 -11 -26 -17
-29 -15 -3 3 6 14 19 25 13 11 26 17 29 14 3 -2 -6 -13 -19 -24z m1499 17 c0
-3 -7 -12 -16 -20 -23 -23 -40 -19 -19 4 16 18 35 26 35 16z m-1410 -50 c0 -2
-8 -10 -17 -17 -16 -13 -17 -12 -4 4 13 16 21 21 21 13z m1473 -11 c-3 -9 -8
-14 -10 -11 -3 3 -2 9 2 15 9 16 15 13 8 -4z m2868 -3 c-13 -25 -41 -48 -41
-34 0 10 38 52 47 52 2 0 -1 -8 -6 -18z m-4468 2 c8 -8 -18 -45 -94 -139 -72
-88 -188 -294 -220 -390 -7 -22 -17 -46 -22 -52 -14 -19 -29 -5 -17 17 5 10
10 29 10 41 0 12 12 43 27 68 15 25 29 55 30 65 5 26 57 115 87 147 13 14 35
48 48 74 23 43 125 173 139 174 3 1 9 -2 12 -5z m1487 -3 c0 -9 -23 -40 -126
-173 -23 -29 -61 -89 -84 -133 -24 -44 -49 -87 -56 -96 -8 -8 -27 -53 -43 -99
-16 -47 -35 -86 -41 -88 -9 -3 -11 4 -6 24 3 16 8 42 11 57 2 15 14 42 26 59
13 17 23 38 24 47 2 27 52 115 90 161 20 24 45 62 56 85 10 22 44 68 75 103
52 58 74 74 74 53z m-1274 -48 c15 -27 42 -68 60 -93 71 -100 166 -405 158
-513 -6 -90 -99 -350 -147 -412 -37 -48 -133 -131 -236 -202 -81 -57 -118 -66
-170 -38 -41 21 -96 88 -109 133 -11 36 -17 338 -8 392 2 14 7 43 11 65 3 22
17 76 29 120 13 44 22 82 20 84 -9 10 -25 -18 -54 -99 -18 -50 -35 -89 -37
-86 -5 5 34 161 47 184 5 9 22 47 38 83 35 79 101 184 109 175 3 -3 -1 -14
-10 -24 -16 -18 -9 -46 9 -34 5 4 38 50 73 102 103 153 151 210 177 210 7 0
25 -21 40 -47z m1512 -46 c34 -51 72 -118 86 -149 25 -55 73 -214 96 -317 22
-97 -2 -199 -108 -454 -18 -44 -78 -107 -182 -190 -112 -90 -159 -117 -200
-117 -49 0 -110 45 -147 107 l-28 48 1 215 c1 208 2 218 32 325 17 60 29 111
26 114 -9 9 -33 -36 -55 -107 -26 -83 -40 -103 -28 -38 19 105 101 295 156
365 2 3 9 -4 17 -14 12 -16 19 -8 86 91 73 110 136 193 155 206 22 16 34 5 93
-85z m-3268 69 c0 -8 -51 -182 -62 -211 -51 -136 -109 -260 -138 -295 -27 -32
-26 -28 14 55 53 111 83 187 132 338 21 64 42 117 46 117 4 0 8 -2 8 -4z
m1603 -45 c-3 -10 -18 -32 -35 -47 -30 -28 -30 -28 -18 -4 11 22 49 70 56 70
1 0 0 -9 -3 -19z m4337 -21 c-21 -29 -40 -46 -40 -35 0 13 45 73 52 68 5 -2
-1 -17 -12 -33z m-2850 23 c0 -5 -14 -23 -30 -42 -34 -39 -41 -19 -8 22 21 26
38 35 38 20z m-3060 -28 c0 -14 -4 -25 -10 -25 -11 0 -14 33 -3 43 11 11 13 8
13 -18z m-213 -67 c-3 -8 -6 -5 -6 6 -1 11 2 17 5 13 3 -3 4 -12 1 -19z m1689
-44 c-10 -14 -20 -23 -23 -20 -3 3 2 17 11 32 10 14 20 23 23 20 3 -3 -2 -17
-11 -32z m1494 24 c0 -7 -9 -24 -20 -38 -20 -27 -22 -9 -2 28 14 25 22 28 22
10z m-3190 -28 c0 -5 -4 -10 -10 -10 -5 0 -10 5 -10 10 0 6 5 10 10 10 6 0 10
-4 10 -10z m4832 -52 c-19 -44 -61 -92 -45 -52 14 34 56 104 61 100 2 -3 -5
-24 -16 -48z m-4839 7 c8 -19 1 -49 -17 -77 -8 -13 -27 -47 -43 -77 -27 -52
-56 -82 -68 -70 -3 4 7 30 23 60 15 30 40 82 55 117 28 63 40 74 50 47z m3143
-22 c-10 -10 -19 5 -10 18 6 11 8 11 12 0 2 -7 1 -15 -2 -18z m-3302 -257 c-3
-9 -10 -16 -15 -16 -6 0 -5 9 1 21 13 24 24 20 14 -5z m2410 -243 c-3 -21 -8
-49 -11 -63 -4 -14 -8 -29 -8 -35 -5 -31 -21 -75 -45 -119 -31 -58 -194 -233
-203 -218 -4 5 5 20 19 33 62 58 146 211 194 354 13 39 28 76 33 82 16 21 25
5 21 -34z m1481 5 c-3 -24 -9 -56 -12 -73 -4 -16 -6 -34 -5 -39 2 -4 -3 -14
-9 -22 -6 -8 -9 -14 -6 -14 16 0 -65 -134 -104 -172 -24 -24 -61 -63 -83 -86
-21 -23 -42 -39 -48 -36 -5 3 6 22 25 43 76 84 135 190 186 335 35 100 38 106
52 106 7 0 8 -16 4 -42z m-2271 -25 c-3 -27 -10 -52 -15 -58 -6 -6 -8 5 -4 30
12 83 28 105 19 28z m1482 1 c-2 -25 -8 -50 -13 -55 -7 -7 -9 0 -7 23 9 80 26
108 20 32z m-569 -66 c-13 -93 -129 -309 -153 -285 -3 3 6 28 21 54 47 81 85
154 85 163 0 14 39 100 45 100 4 0 5 -15 2 -32z m1477 -25 c-18 -72 -80 -196
-117 -236 -44 -48 -43 -23 3 52 35 59 71 137 103 224 3 9 11 17 16 17 5 0 3
-25 -5 -57z"/>
<path d="M324 4883 c7 -32 13 -61 14 -65 1 -5 2 -17 2 -28 0 -11 4 -20 9 -20
9 0 -19 154 -30 165 -4 3 -1 -20 5 -52z"/>
<path d="M9946 4615 c-20 -14 -46 -34 -58 -45 -12 -11 -25 -20 -30 -20 -4 0
-8 -4 -8 -10 0 -16 18 -12 40 10 11 11 23 20 28 20 13 0 82 50 82 60 0 16 -15
12 -54 -15z"/>
<path d="M761 4153 c0 -29 2 -33 8 -18 7 18 4 55 -5 55 -2 0 -4 -17 -3 -37z"/>
<path d="M7330 3845 c-3 -13 -3 -39 -2 -89 2 -28 5 -37 13 -29 7 7 7 29 1 69
-5 33 -11 55 -12 49z"/>
<path d="M848 3300 c2 -16 6 -30 8 -30 2 0 4 14 4 30 0 17 -4 30 -8 30 -5 0
-7 -13 -4 -30z"/>
</g>
</svg>
