<svg id="Layer_1" data-name="Layer 1" xmlns="http://www.w3.org/2000/svg" viewBox="0 0 512 512"><defs><style>.cls-1{fill:#fff}</style></defs><path class="cls-1" d="M246.33 271l-53.83-16.14v-21.81a87.32 87.32 0 0035.27-63.8 25.18 25.18 0 009.11-43.31V74.06a43 43 0 00-19-35.5A33.9 33.9 0 00185 13.31h-71a69.7 69.7 0 00-69.62 69.63v43a25.17 25.17 0 009.1 43.31 87.35 87.35 0 0035.27 63.8v21.81l-64.43 19.33A33.9 33.9 0 000 306.87v86.69a7.5 7.5 0 007.5 7.5h1.38v90.13a7.5 7.5 0 0015 0v-90.13h29.37v90.13a7.5 7.5 0 1015 0v-142a7.51 7.51 0 00-.79-3.36l-17.75-35.5A7.5 7.5 0 0036.29 317l17 33.92v35.1H15v-79.15a19 19 0 0113.63-18.32l26.93-8.08a87.38 87.38 0 00170.11 0l16.35 4.9a7.39 7.39 0 002.16.32 7.5 7.5 0 002.15-14.69zM68.25 162.81a7.5 7.5 0 00-7.5-7.5 10.26 10.26 0 01-10.25-10.25 10.1 10.1 0 015.15-8.8l.47-.32a10.18 10.18 0 014.63-1.13H72.1a16.36 16.36 0 0015.54-11.2l5.17-15.5c17.63-.38 73.2-2.85 104.42-18.47a7.5 7.5 0 10-6.71-13.41C157 93 88.07 93.19 87.37 93.19a7.5 7.5 0 00-7.11 5.12l-6.85 20.56a1.38 1.38 0 01-1.31.94H59.38V82.94A54.69 54.69 0 01114 28.31h71a19 19 0 0118.8 16.12 7.48 7.48 0 003.72 5.36 28 28 0 0114.35 24.27v55.71a7.52 7.52 0 003.73 6.49 10.1 10.1 0 015.15 8.8 10.26 10.26 0 01-10.25 10.25 7.5 7.5 0 00-7.5 7.5 72.38 72.38 0 11-144.75 0zM177.5 242v18.43a36.88 36.88 0 01-73.75.09V242a87.21 87.21 0 0073.75 0zm10.31 73.31A72.38 72.38 0 0170 276.15l19.71-5.91a51.87 51.87 0 00101.87 0l19.71 5.91a72.42 72.42 0 01-23.48 39.17z"/><path class="cls-1" d="M163.1 183.61a7.51 7.51 0 00-10.55 1.1 14.71 14.71 0 01-23.85 0 7.5 7.5 0 10-11.65 9.45 29.68 29.68 0 0047.15 0 7.5 7.5 0 00-1.1-10.55zM105.12 137.56a7.5 7.5 0 00-7.5 7.5v8.88a7.5 7.5 0 0015 0v-8.88a7.5 7.5 0 00-7.5-7.5zM176.12 137.56a7.5 7.5 0 00-7.5 7.5v8.88a7.5 7.5 0 0015 0v-8.88a7.5 7.5 0 00-7.5-7.5zM402.73 228a7.5 7.5 0 00-10.55 1.1 14.71 14.71 0 01-23.85 0 7.5 7.5 0 00-11.65 9.45 29.68 29.68 0 0047.15 0 7.52 7.52 0 00-1.1-10.55zM344.75 181.94a7.5 7.5 0 00-7.5 7.5v8.87a7.5 7.5 0 0015 0v-8.87a7.5 7.5 0 00-7.5-7.5zM415.75 181.94a7.5 7.5 0 00-7.5 7.5v8.87a7.5 7.5 0 0015 0v-8.87a7.5 7.5 0 00-7.5-7.5z"/><path class="cls-1" d="M490.55 335.53l-60.86-24.34a10.64 10.64 0 01-1.47-.74c41.22-8.3 60.52-16.1 61.37-16.45a7.49 7.49 0 004.6-7.87c-.09-.7-8.81-71.24-8.81-132.19a105.13 105.13 0 10-210.25 0c0 60.92-8.73 131.49-8.82 132.19a7.49 7.49 0 004.6 7.87c.85.35 20.15 8.15 61.37 16.45a10.64 10.64 0 01-1.47.74L270 335.53a34 34 0 00-21.45 31.68v18.85H228V351l17-34a7.5 7.5 0 00-13.42-6.71l-17.75 35.5a7.54 7.54 0 00-.79 3.36v142a7.5 7.5 0 1015 0v-90.09h20.5v10.26a7.51 7.51 0 007.5 7.5h1.38v72.37a7.5 7.5 0 0015 0v-72.38h20.5v72.38a7.5 7.5 0 0015 0v-97.63a7.5 7.5 0 00-15 0v10.25H263.5v-36.6a19 19 0 0112-17.75l29.92-12a78.51 78.51 0 00149.62 0l29.92 12a19 19 0 0112 17.75v36.6h-29.34v-10.25a7.5 7.5 0 00-15 0v97.63a7.5 7.5 0 0015 0v-72.38h20.5v72.38a7.5 7.5 0 0015 0v-72.38h1.38a7.5 7.5 0 007.5-7.5v-44.1a34 34 0 00-21.45-31.68zM290.12 153.94a90.13 90.13 0 01180.26 0c0 51.49 6.12 109.62 8.23 128.1-8.31 2.82-26.5 8.38-55.36 14.11v-12.91a86.35 86.35 0 0011.89-8.07 87.1 87.1 0 0032.48-68c0-43.69-31.64-50-62.24-56-19.57-3.89-39.8-7.91-55.95-20.82a7.49 7.49 0 00-11.38 2.49 88.12 88.12 0 01-11.36 16.41c-6 6.83-15.47 15-26.32 15a25.08 25.08 0 00-10.37 2.17c.08-4.19.12-8.36.12-12.48zm90.13 125.62a71.56 71.56 0 01-45.46-16.05 72.14 72.14 0 01-26.91-56.32 7.5 7.5 0 00-7.5-7.5 10.25 10.25 0 110-20.5c22.74 0 39.23-20.6 46.68-32.12 17.49 11.26 37.5 15.23 55.4 18.79 33 6.54 50.16 11.35 50.16 41.33a72.14 72.14 0 01-26.91 56.32 71.56 71.56 0 01-45.46 16.05zM281.89 282c1.33-11.64 4.25-39 6.23-70.55a25.07 25.07 0 005 2.13 87.07 87.07 0 0032.25 61.55 86.35 86.35 0 0011.89 8.07v12.91c-28.88-5.69-47.06-11.25-55.37-14.11zm98.36 95.15a63.46 63.46 0 01-60.85-45.25l17-6.79a25.11 25.11 0 0015.87-23.44v-11.74a87 87 0 0056 0v11.74a25.11 25.11 0 0015.87 23.44l17 6.79a63.48 63.48 0 01-60.89 45.29z"/></svg>