<svg id="Laag_1" data-name="Laag 1" xmlns="http://www.w3.org/2000/svg" viewBox="0 0 512 512"><defs><style>.cls-1{fill:#fff}</style></defs><path class="cls-1" d="M87.63 227a62.41 62.41 0 0051.93-27.54 33 33 0 0021.26 9.12 93 93 0 0084.5 53.55h22.89a93 93 0 0084.51-53.57 32.71 32.71 0 0020.86-9.27A62.33 62.33 0 00425.64 227a12.31 12.31 0 0012.3-12.3v-84.48a52.11 52.11 0 00-52.05-52h-18A20.07 20.07 0 00349.42 66h-3.62a20 20 0 00-10.21 2.82A93.19 93.19 0 00268.21 40h-22.89a93.16 93.16 0 00-67.47 28.87A20 20 0 00167.47 66h-3.61a20.1 20.1 0 00-18.46 12.17h-18a52.11 52.11 0 00-52 52.05v84.43A12.32 12.32 0 0087.63 227zm263.07-33.59a11.76 11.76 0 01-1.78-.16 7.57 7.57 0 00-8.11 4.67 78 78 0 01-72.6 49h-22.89a77.94 77.94 0 01-72.62-49.07 7.6 7.6 0 00-7-4.75 8.78 8.78 0 00-1.35.11 10.64 10.64 0 01-1.93.2 18 18 0 01-17.94-17.95V167a10.8 10.8 0 0110.78-10.79h4.23a7.58 7.58 0 007.58-7.58v-.87a78.65 78.65 0 0161.53-29.9H285a78.65 78.65 0 0161.53 29.9v.87a7.58 7.58 0 007.58 7.58H356a12.39 12.39 0 0112.37 12.37v7.22a17.64 17.64 0 01-17.67 17.61zm72.08-63.19v81.48a47.21 47.21 0 01-40.36-27.65 32.64 32.64 0 001.06-8.26v-7.22a27.38 27.38 0 00-5.37-16.29s-.09-14.12-.27-15.86a7.58 7.58 0 00-15.08 1.51c.12 1.24.19 2.5.19 3.75v.32c-.43-.11-.86-.24-1.3-.33v-8.19a94 94 0 00-1.1-14.33 20.15 20.15 0 008.92-16.64v-9.18h16.42a36.93 36.93 0 0136.89 36.89zm-77-49.11h3.62a4.89 4.89 0 014.9 4.89v11.12a93.64 93.64 0 00-8.7-16zM245.32 55.16h22.89a78.39 78.39 0 0177.88 70.36A93.84 93.84 0 00285 102.69h-56.43a93.84 93.84 0 00-61.13 22.83 78.39 78.39 0 0177.88-70.36zm-81.47 26h4.07a93.22 93.22 0 00-8.92 16.6V86a4.89 4.89 0 014.85-4.89zm-73.36 49.06a36.93 36.93 0 0136.89-36.89h16.43v9.14a20.06 20.06 0 009.19 16.81 94.39 94.39 0 00-1.07 14.16v7.81c-.52.07-1 .16-1.55.26 0-1.19.06-2.39.18-3.56a7.58 7.58 0 00-15.08-1.51c-.18 1.73-.27 14.12-.27 14.12a25.84 25.84 0 00-5.92 16.44v8.47a32.72 32.72 0 001.3 9.17 47.34 47.34 0 01-40.1 27.07z"/><path class="cls-1" d="M231.53 160.24A11.28 11.28 0 11220.25 149a11.28 11.28 0 0111.28 11.24zM304.56 160.24A11.28 11.28 0 11293.28 149a11.28 11.28 0 0111.28 11.24zM290.8 180h-68.07a11.36 11.36 0 00-11.27 12.57 45.58 45.58 0 0090.61 0A11.33 11.33 0 00290.8 180zm-34 38a30.37 30.37 0 01-29.47-22.83h58.93A30.35 30.35 0 01256.77 218zM490.16 352.34v-8.2a93.54 93.54 0 00-93.43-93.44h-22.89a93.55 93.55 0 00-93.44 93.44V352a26 26 0 00-22.6 25.74v8.47a33.15 33.15 0 0031.54 33.07 93 93 0 0084.5 53.55h22.89a93 93 0 0084.51-53.57A32.82 32.82 0 00512 386.49v-7.22a27.56 27.56 0 00-21.84-26.93zm-116.32-86.48h22.89a78.4 78.4 0 0177.88 70.36 93.84 93.84 0 00-61.13-22.83h-56.39A93.84 93.84 0 00296 336.22a78.39 78.39 0 0177.84-70.36zm123 120.63a17.64 17.64 0 01-17.62 17.62 13.13 13.13 0 01-1.79-.15 7.56 7.56 0 00-8.11 4.66 78 78 0 01-72.59 49h-22.89a78 78 0 01-72.63-49.07 7.58 7.58 0 00-7-4.75 7.67 7.67 0 00-1.34.12 10.65 10.65 0 01-1.93.19 18 18 0 01-18-17.95v-8.47a10.8 10.8 0 0110.79-10.79H288a7.58 7.58 0 007.58-7.58v-.87a78.67 78.67 0 0161.53-29.9h56.39a78.66 78.66 0 0161.5 29.9v.87a7.58 7.58 0 007.59 7.58h1.88a12.39 12.39 0 0112.37 12.37z"/><path class="cls-1" d="M360.05 371a11.28 11.28 0 11-11.28-11.28A11.27 11.27 0 01360.05 371zM433.07 371a11.28 11.28 0 11-11.27-11.28A11.26 11.26 0 01433.07 371zM419.32 390.66h-68.07A11.34 11.34 0 00340 403.23a45.58 45.58 0 0090.61 0 11.34 11.34 0 00-11.27-12.58zm-34 38a30.35 30.35 0 01-29.46-22.83h58.93a30.36 30.36 0 01-29.51 22.82zM232.37 352.33v-8.19a93.55 93.55 0 00-93.44-93.44H116a93.55 93.55 0 00-93.4 93.44V352A26 26 0 000 377.69v8.47a33.15 33.15 0 0031.54 33.07A93 93 0 00116 472.79h22.89a93 93 0 0084.51-53.58 32.84 32.84 0 0030.76-32.72v-7.22a27.58 27.58 0 00-21.79-26.94zm6.63 34.16a17.65 17.65 0 01-17.62 17.62 13.13 13.13 0 01-1.79-.15 7.56 7.56 0 00-8.11 4.66 78 78 0 01-72.6 49H116a78 78 0 01-72.63-49.07 7.58 7.58 0 00-7-4.75 7.67 7.67 0 00-1.34.12 10.65 10.65 0 01-1.93.19 18 18 0 01-17.95-17.95v-8.47A10.8 10.8 0 0126 366.9h4.23a7.58 7.58 0 007.58-7.58v-.87a78.67 78.67 0 0161.53-29.9h56.39a78.2 78.2 0 0115.3 1.5 7.58 7.58 0 003-14.87 93.56 93.56 0 00-18.25-1.79H99.29a93.84 93.84 0 00-61.13 22.83A78.39 78.39 0 01116 265.86h22.89a78.39 78.39 0 0177.87 70.32 93.92 93.92 0 00-11.14-8.3 7.58 7.58 0 00-8.12 12.8 78.31 78.31 0 0119.66 17.8v.84a7.58 7.58 0 007.59 7.58h1.88A12.39 12.39 0 01239 379.27z"/><path class="cls-1" d="M102.25 371A11.28 11.28 0 1191 359.67 11.27 11.27 0 01102.25 371zM175.27 371A11.28 11.28 0 11164 359.67 11.26 11.26 0 01175.27 371zM161.52 390.66H93.45a11.34 11.34 0 00-11.27 12.57 45.58 45.58 0 0090.61 0 11.36 11.36 0 00-11.27-12.57zm-34 38A30.35 30.35 0 0198 405.82h59a30.35 30.35 0 01-29.52 22.83z"/></svg>