<svg xmlns="http://www.w3.org/2000/svg" viewBox="0 0 419.52 226.01"><defs><style>.cls-1{fill:#e2001a}</style></defs><g id="Laag_2" data-name="Laag 2"><g id="Laag_1-2" data-name="Laag 1"><path class="cls-1" d="M103.13 45.82l-.6.8h1c0 .4-.2 1-.2 1.6a2.93 2.93 0 01-.4 2.2 4 4 0 00-.2 2.2c.2 0 .4-.2.6-.2V53c-1.2 1.2-1 3-1.2 4.4.6 1.4.2 2.8 0 4.2-.2 2.2-.6 4.4-.8 6.6l-.6 3.8c-.8 3.6-1.6 7-2.4 10.4-.4 1.6-.6 3-1 4.4l-1.2 4.4a37.32 37.32 0 00-1.4 4.4 2.29 2.29 0 00.2 2c.2.2.2.4 0 .8 0 .4-.4 1-.4 1.6a2.17 2.17 0 01-.2-1.2l-.6.6-1.8 5.4a10.34 10.34 0 01-1.2 2.6 2.84 2.84 0 00-.4 1.2 5.67 5.67 0 01-.8 2.6.75.75 0 000 1.2 5 5 0 00-.8 1.4h-.2a.62.62 0 01.2.4 10 10 0 00-2 3.8c-.6 1.2-1.2 2.2-1.8 3.2l-4.2 7.2a18.78 18.78 0 01-2.4 3.6c-1.2 1.4-2.2 3-3.4 4.6-1.2 1.4-2.4 2.8-3.6 4a31.37 31.37 0 01-8.2 6.4c-1.6 1-3.2 1.8-4.8 2.6a7.09 7.09 0 01-2.2.6 17.87 17.87 0 01-11.2 0 26.4 26.4 0 01-9-4.2l-2.2-1.8c-.4-.4-1-.8-1.6-1.4a2.17 2.17 0 00-.2 1 4.4 4.4 0 00.2 1.6c-.6 0-.4-.2-.6-.6a6.8 6.8 0 00-.2-2c0-.4-.2-.6-.2-.8-.6 0-.6.4-.4.6a15.14 15.14 0 00.2 3 33.9 33.9 0 00.2 4.4c.2 3 .4 6.2.8 9.4.6 4.59 1.2 9.39 1.6 14l1.8 15.2c.4 4 1.2 7.8 1.8 11.8a22.62 22.62 0 00.8 3c.6-1.2-.2-2 0-3 .4.19.2.59.4.8 0 .39.2.59.2 1a2.2 2.2 0 00.2 1 13.41 13.41 0 00.4 2.79l.6 3.21c.4 2.19.8 4.19 1.2 6.39a7.16 7.16 0 00.8 2.2 5.34 5.34 0 010 5.2c-.4.4-.6.8-1.2 1-.2 0-.4.2-.4.6-.4.6-.8.6-1.4.8a5.76 5.76 0 00-2.6.2 1.52 1.52 0 01-.8-.4 2.76 2.76 0 01-.6.8l-2.2-.4a.9.9 0 01-.6-.6 7.1 7.1 0 01-.8-1.8 21.1 21.1 0 00-1-3.8 28.32 28.32 0 00-.8-4 2.89 2.89 0 00-.4-1.4l-1.2-3c-.6-2.6-1.6-5.2-2.4-7.79a11.82 11.82 0 01-1.2-2.8 7.25 7.25 0 01-.4-2 14.22 14.22 0 00-1.8-5.61 4.37 4.37 0 01-1-2.19 11.55 11.55 0 00-1.2-3.4 11.46 11.46 0 01-.8-2.8c0-1.61-.8-3-1.2-4.61l-.6-1.8-1.8-6a4.86 4.86 0 00-.6-1 .2.2 0 01.2-.2c-.2-.19-.2-.39-.4-.8a4.35 4.35 0 00-.2-1.59c-.8-2.2-1.4-4.41-2-6.6a9.14 9.14 0 01-.6-2.2 31.33 31.33 0 00-1-6 4.87 4.87 0 00-.8-1.8 1.53 1.53 0 01-.4-1 17.61 17.61 0 01-.4-3.4 8.36 8.36 0 00-1-4.8h-.2c.2 0 0-.2 0-.4v-.4a31.07 31.07 0 00-1-4.6v-.4c-.4-2-1-3.8-1.4-5.6v-1.6a8.27 8.27 0 00-.4-3.8 11.68 11.68 0 01-.8-3.6 14.19 14.19 0 00-1-5.8c0-.6-.2-1.2-.2-2a39 39 0 01-.4-5 15.94 15.94 0 00-.6-3c0-.4-.2-.8-.2-1.2-.2-2.4-.2-4.6-.4-7a13.76 13.76 0 00-.4-2.6c0-.4-.2-.8-.2-1.2 0-3-.2-6.2-.4-9.2a11.3 11.3 0 010-2.6v-1.4a60.57 60.57 0 01-.4-6.2v-2.6a2.79 2.79 0 000-2.2 6.68 6.68 0 01.2-3.4 3.9 3.9 0 00.2-1.6c0-1-.2-2.2-.2-3.4a6.8 6.8 0 01.2-2 15.14 15.14 0 00.2-3c.2-2.8.2-5.8.4-8.6a13.37 13.37 0 011-3.8c0-.2.2-.2.2-.4-.2-1.8.8-3.4 1-5.4v-.2a60.52 60.52 0 012.4-6.4 16.53 16.53 0 001.4-2.6l2.4-3.6a1.22 1.22 0 011.4-.6 1.26 1.26 0 001.4-.2 1.53 1.53 0 011-.4c.4 0 .8 0 1 .4a2 2 0 00.6.2c.8.4.8.6.6 1.2-.8 1.6-1.6 3.2-2.4 4.6l-.6 1.6a23 23 0 00-1.2 3.4l-.6 3.2a.73.73 0 00-.2.6c.2 2-.8 3.8-1 5.8-1 1.6-.8 3.4-.8 5.2a38.84 38.84 0 00-.4 4.8 58.92 58.92 0 00-.2 8.4c0 3.2 0 6.4.2 9.6.2 3.8.4 7.4.8 11.2a28.17 28.17 0 00.2 4 9.74 9.74 0 00.2 2.4 35.92 35.92 0 01.4 4.4 11.8 11.8 0 00.4 2.8c.4 2.4.6 5 .8 7.4.2 2 .6 4 .8 6a15.54 15.54 0 01.4 3.2 59.41 59.41 0 001.6 8.6c0 .6.2 1.2.2 1.8a12.93 12.93 0 00.8 4c.2.8.2 1.6.4 2.4a53 53 0 001.8 9.8.73.73 0 00.2.6 76.73 76.73 0 002.4 11.8 1 1 0 00.4.81v-1.2c0-.4-.2-.8-.2-1.2s-.2-1 0-1.41c0-.19 0-.19.2-.19a1.1 1.1 0 01-.6-1 1.51 1.51 0 00-.2-.8c.6-.2.8-.4.8-1 0-.2-.2-.4-.2-.8l-.2-2c0-1.4.2-2.8.2-4.2v-2a6.18 6.18 0 01-.4-1.6v-4c0-.2-.2-.2 0-.4a5.76 5.76 0 00.2-2.6 11.4 11.4 0 01-.2-2.6 17.1 17.1 0 01-.2-6.4 8.39 8.39 0 00.2-3.2 1.5 1.5 0 01-.2-1 5.14 5.14 0 01.2-4.2 6.19 6.19 0 00.2-3.8c-.2-.4-.2-.8-.4-1a10 10 0 01-.2-4.2 8.66 8.66 0 00.2-3.2 13.1 13.1 0 010-2.8 15.14 15.14 0 00.2-3V94c-.2-1.2-.6-2.6.2-4 .4-.4.2-1.2.4-2 0-2.2.2-4.4.4-6.6 0-.6 0-1-.4-1.2h-.2l.6-.6c.2-.6.2-.6-.2-1.2.2-.2.4-.4.4-.6a18.07 18.07 0 00.8-5.6 15.54 15.54 0 01.4-3.2l.6-3.6a14 14 0 01.6-2.8l.6-2.6a4.27 4.27 0 000-1.6 3 3 0 01.4-2.6c.6-1 .4-2 .8-2.8a3.82 3.82 0 01.6-1.6 18.73 18.73 0 00.8-3.2 16.66 16.66 0 01.8-3 1.53 1.53 0 01.4-1 12 12 0 001.6-3.2c.2-.6.2-1.2.8-1.6.2 0 .2-.4.2-.6a1.5 1.5 0 01.2-1 32.63 32.63 0 001.8-3.8c0-.2.2-.4.4-.8a23.88 23.88 0 001.6-3.2c.2-.4.4-.6.4-.8a3.77 3.77 0 01.8-1.8c.8-2.4 2.4-4.2 4-6.2a6.2 6.2 0 001.2-2.6 4.37 4.37 0 01.6-1 27.15 27.15 0 002.4-2.4 17.87 17.87 0 002.6-2.8 22.82 22.82 0 012.2-2.2c.4-.4 1.4-.4 1.4-1.4 0-.2 0-.2.2-.2 1.2-.4 2-1.6 3-2.4a40.56 40.56 0 013.6-2.6c.4-.4.8-.6 1-.8a5.33 5.33 0 012.8-1.4 27.55 27.55 0 015.2-1.2 22.83 22.83 0 017.4.2 35.35 35.35 0 016.2 1.6 35.35 35.35 0 0110.8 6.8 37.77 37.77 0 014 4 12.38 12.38 0 012.2 3.4l.6 1.2a6.26 6.26 0 011 2c0 .2.2.4.4.6h.4c0 .2.2.6.2.8-.4.8 0 1.4.4 2.2l.2-.2c-.4.6 0 .8 0 1.2h.2c-.2.2-.2.2-.2.4.2.4-.2 1.2.4 1.6a2.76 2.76 0 01.8-.6c0 .4.2.8.2 1.2a4.19 4.19 0 01.8 2.2l.6 3 .6 3a31.44 31.44 0 01.8 4.6 7.56 7.56 0 01-.8 4.2c0 .8.8.4.8 1a2.84 2.84 0 01-.4 1.22zm-77.8 150.6l-1.8-6.42c.2.21.4.61.6.8a.44.44 0 00.4.41 23.53 23.53 0 00-1-3.6c0-.4-.4-.4-.6-.4a5 5 0 00-.2-2.41 4.65 4.65 0 00-.4-1.59 24.52 24.52 0 00-1.2-3.6 10.52 10.52 0 00.8 3.39.61.61 0 01.4.21v1c0 .2.2.59.4.59a9.78 9.78 0 00.2 2.41 6.43 6.43 0 01.8 2.79 7 7 0 01-.8-1.79l-2.4-8.41c-1.2-3.8-2.4-7.39-3.2-11.19-1-4.4-2.2-8.8-3.2-13l-3.6-17c-.6-3-1-6-1.6-9.2a44.23 44.23 0 01-1-5c-.6-3.8-1-7.6-1.6-11.4-.4-2.2-.8-4.6-1-7l-1.2-11.8c-.2-3.2-.4-6.2-.6-9.2-.2-7.2-.6-14.6-.4-21.8a13.61 13.61 0 01.4-4V69a25.36 25.36 0 00.6 6.8 3.44 3.44 0 00-.4 2.4c.2 3.8.6 7.4.6 11.2.4 6.2 1 12.6 1.8 18.8.4 3.8 1 7.6 1.6 11.4l1.8 10.8c.4 2.8 1 5.6 1.6 8.4s1 5.8 1.8 8.6a10.18 10.18 0 001.2 4.2v-.6c-.8-3.79-1.6-7.59-2.4-11.59-1.2-6.2-2.2-12.4-3.4-18.6l-.6-4.8c-.4-2.8-.8-5.4-1-8.2-.2-1.8-.6-3.8-.8-5.8-.2-2.2-.6-4.4-.6-6.6-.6-5.8-.8-11.8-1.2-17.8v-1.8c0-1.8-.2-3.6-.2-5.6 0-2.4 0-4.8.2-7.2 0-3 .2-6 .2-9.2.2-2.2.6-4.6.8-7a.7.7 0 01-.2-.4c-.2.4-.4.4-.6.6l.6-5.6c-.4.2-.4.4-.4.6a20.21 20.21 0 00-.6 3.4c-.6 3.8-.8 7.6-1.2 11.6-.2 4.4-.2 8.6-.2 13s.2 8.8.4 13.2v2.4a101.71 101.71 0 01.8 11c.2 5 1.2 10 1.6 15l.6 4.6 2.4 14.4a2.54 2.54 0 00.2 1.2c.2 1.6.8 3.2 1 4.8.6 3.6 1.4 7.2 2.2 11 1 5 2.2 9.8 3.4 14.8s2.6 10 4 15.19l3 10.4c.8 2.61 1.8 5 2.6 7.6 0 .4.2.82.6.82zM3.53 59.22a8.91 8.91 0 01.2-3.2c-.2 1.2.2 2.2-.2 3.2zm.4-8.4a24.57 24.57 0 01-.4 5.4 35.4 35.4 0 00.2-4.6c0-.2.2-.4.2-.8zm0 .2a24.62 24.62 0 01.4-4 9.13 9.13 0 01-.4 3.98zm1.2-5.8a9 9 0 00.4-1.6 1.45 1.45 0 00-.4 1.6zm0-5.8c.4 0 .4-.2.6-.6zm1.6 36.2c.4 7.4.8 14.8 1.6 22.2.4 3.8.8 7.8 1.4 11.6.6 4.8 1.4 9.6 2.2 14.4 1 5.4 1.8 10.8 2.8 16 .6 3.8 1.6 7.6 2.4 11.19.6 2.61 1 5.21 1.6 7.61l2.4 9.39c.2.41.4 1 .8 1.8-.2-.59 0-.8-.2-1-.6-3-1.2-6.19-2-9.19-.4-2.4-1-4.8-1.6-7.2-.8-3.8-1.6-7.8-2.2-11.6-.6-2.8-1-5.4-1.6-8l-.6-4a12.75 12.75 0 01-.4-1.4c-.2-1.8-.6-3.8-.8-5.8l-2.4-15.4c-.2-2.8-.6-5.6-1-8.4C8.33 92 8.13 86 7.73 80c-.2-3.4-.2-6.8-.4-10.2a163.86 163.86 0 01.2-17.2c.4-3.6.6-7 1.2-10.6l.6-4c-.6.4-.6 1-.8 1.6-.4 2.2-.8 4.2-1 6.4a102.17 102.17 0 00-1 15.6c-.2 4.82 0 9.4.2 14.02zm2.2-7.8h-.2v-1.4a3.4 3.4 0 01.2 1.4zm-.2 2.4a.2.2 0 00.2-.2 3 3 0 00.2 1.4v1.4h-.2a11.4 11.4 0 00-.2-2.6zm1 13.6a31.39 31.39 0 01-.6-3.2 4 4 0 01.6 3.2zm0 5.2a16.17 16.17 0 01-.2-3.2 6.36 6.36 0 01.6 1.8v1.8a.43.43 0 00-.4-.42zm.6 4.2a6.17 6.17 0 00-.2-2h.2a6.17 6.17 0 01.2 2zm.2 3.4a.2.2 0 00.2-.2v.4c0-.2 0-.2-.2-.2zm.8 2.2a22 22 0 01.4 3.6c-.4 0-.4-.4-.4-.6a14.17 14.17 0 01-.2-2.8zm.4 5.4a5.07 5.07 0 01.4 2.4c-.4-.8-1-1.4-.4-2.4zm1.4 11.8a.73.73 0 00-.2-.6c.2.2.4.4.4.6.4 2.2.8 4.4 1.4 6.6 0 .2-.2.2-.2.4a5.87 5.87 0 01-.6-2c-.2-1.6-.4-3.2-.8-5.02zm3.6 46.6c-.2 1.39.4 2.39.6 3.39 0 .21.4.21.4.41a35.44 35.44 0 00-1-3.8 55.92 55.92 0 00-2.4-9.4 2.18 2.18 0 00.2 1.2 37.68 37.68 0 001 4.59l.6 2.81c.2.4.4.8.6.8zm-1.4-34.8a6.51 6.51 0 01.8 2.8c-.4.2-.4-.2-.6-.4 0-.8-.2-1.6-.2-2.4zm.8 5c.2 0 0 0 .2.2h-.2zm2.2 36.8l-.6-3.2a4.83 4.83 0 00.6 3.2zm.4 1.39c0 .21 0 .21.2.21V171zm1.8 5.6v1.2h.2c0-.39-.2-.8-.2-1.2a14.76 14.76 0 00-1.4-3.8 18.83 18.83 0 001 3.61c0 .19.2.19.4.19zm0-24.79c0 1.19 0 1.19.4 1.8.2-.62.6-1.2-.4-1.8zm1.8-46c.2.8.4 1.8.8 3 0-1.6-.2-2.8-.2-3.8a7.13 7.13 0 00-.2-3.2c0 .8-.2 1.8-.2 2.8a2.54 2.54 0 00-.2 1.2zm.4 5.6c-.4 1.4.2 2.6.2 4 .6-1.42.4-2.42-.2-4zm.2-14.4c.4-.6.4-.6 0-1.2zm.4-3.6a2.83 2.83 0 00.2-2.2 2.83 2.83 0 00-.2 2.2zm.2 50.8c0 .8-.4 1.6.2 2.4a2.39 2.39 0 00-.2-2.4zm.4 5a1.55 1.55 0 00-.2.6 40.17 40.17 0 00.2 5c0 .4.2.8.2 1.19a19.52 19.52 0 00-.2-6.79zm3.6 31.78c-.4-2.79-.8-5.59-1-8.39-.4-3-.8-6-1-9l-.6-4.61a2.85 2.85 0 00-.4-1.19c-.4.6-.2 1.19-.2 1.8.2 2.2.6 4.39.8 6.6.4 3 .8 6.2 1 9.4a50.44 50.44 0 01.8 5.39 2.88 2.88 0 01.4 1.21 2.58 2.58 0 00.2-1.21zm-3-104l.2.2V77zm0 67c.2 2 .2 3.8.4 5.6.2-2.98.2-4.38-.4-5.6zm.2-68.4a.2.2 0 00.2.2v-.2l-.2-.2zm1 123a.61.61 0 00-.2-.39.66.66 0 00.2.4zm.4-35.39l.2.2h.2c0-.2 0-.2-.2-.41a.2.2 0 01-.2.22zm3.8 29v-1.8c-.2-2.2-.6-4.41-.8-6.61l-1.2-9.39c-.4-2.61-.8-5.41-1.2-8 .8 8.59 1.4 17.21 3.2 25.81zm-2.4-81.4a3.68 3.68 0 00.4-3.2.62.62 0 01-.4-.2c-.6 1.59-.6 2.41 0 3.41zm-.4-4.4h.2a.7.7 0 00.2-.4.2.2 0 00-.2-.2h-.2zm.4-5.2a.7.7 0 00.4.2c.4-.2.2-.4.2-.8a.62.62 0 00-.2-.4c-.4.21-.6.41-.4 1.01zm0 19.2v.8a1.2 1.2 0 00.2.8h.6c-.6-.2-.2-.8-.4-1.4 0-.19 0-.39-.4-.19zm.2-1.2l.2.2v-.2zm.4-63.2c.2 0 .6-.2.4-.6-.2.21-.4.41-.4.59zm0 41.2a.2.2 0 00.2.2V97a.2.2 0 00-.2.22zm0 26.8c0 .2.2.2.4.4v-1h-.2c0 .21-.2.41-.2.59zm.2 64.4l-.2.2h.2zm1.4-39.6c0-2.4-.2-4.8-.2-7.4-.2-.4-.2-1-.4-1.4 0-.2-.2-.4-.4-.6a2.6 2.6 0 00-.4 2c.2 1.4.2 3 .4 4.6.2 5.2.6 10.2 1.2 15.4.4 2.39.6 4.8 1 7.39.4 4.81 1 9.8 1.6 14.81.4 4.19 1 8.6 1.6 13l.6 3.81c.8 3.8 1.4 7.59 2.2 11.39.4 2 1 4.2 1.4 6.4l.4.6c0 .2.2.2.4.2l.2-.2V218c-.6-3-1.4-5.79-1.8-8.79l-2.4-12.61c-.2-1.39-.2-2.8-.4-4l-1.2-9c-1-7.81-1.8-15.81-2.8-23.61-.4-3.77-.8-7.57-1-11.17zm.6 52.4c-.4-1.8-.6-3.21-1-4.61a.65.65 0 00-.6-.6l.2-.2a.2.2 0 00-.2-.2v.4a19.28 19.28 0 001.6 5.22zm52-97c.2 0 .4.2.6-.2 0-.2.2-.2.2-.4a30.34 30.34 0 01.6-4.2 1.8 1.8 0 00.2-1V98c.2-.8.2-1.6.8-2a1.2 1.2 0 00.6-1.2c-.2-1.2.6-2.2.4-3.4a37.26 37.26 0 001.4-6.8 43.44 43.44 0 011.4-4.8 4.4 4.4 0 00.4-2.8 10 10 0 001-4.2 15.54 15.54 0 01.4-3.2c.6-2 .8-4.2 1.2-6.2a15 15 0 00.2-5.2 7.77 7.77 0 01.4-3 2.83 2.83 0 00.2-2.2c-.6-1.2.2-2.6 0-3.8-.2-.4 0-.8 0-1v-.4c.8-1.2.4-2.4.4-3.6a26.8 26.8 0 01-.2-4v-.8a21.74 21.74 0 00-.2-3.6c0-.6-.2-1-.2-1.6 0-2 .2-4.2-.6-6a21.31 21.31 0 00-1.2-6.2 35.69 35.69 0 00-3.6-8.6 11 11 0 00-1.4-1.8 12.37 12.37 0 00-7-3 16.26 16.26 0 00-4.4-.2 8.87 8.87 0 00-4 .6 15.68 15.68 0 01-2.8 1 4.39 4.39 0 00-2.4 1c-.6.6-1.2.8-1.8 1.4-.4.2-.6-.2-1-.2a10 10 0 01-1.6 1.4 30.55 30.55 0 00-6.6 5.8c-1 1-1.8 2.2-2.8 3.2a52.58 52.58 0 00-6 8.8 85.54 85.54 0 00-6.2 13.8c-1.2 3-2 6-3 9a1.32 1.32 0 00-.2 1.2l-.4.6a.2.2 0 00.2.2c-.4 1.2-1 2.4-1.4 3.6.8-.2 1-1 1.6-1.6l-.6 3.4c0 .2-.2.4-.4.6a1.64 1.64 0 00.2-1.4.73.73 0 01-.6.2c-.2 1-.6 2-.8 3l-.6 3c-.2 1.4-.4 2.6-.6 4a9.74 9.74 0 00-.2 2.4.2.2 0 01.2.2c.2-.2.2-.6.6-.4v.4c-.2 2.6-.6 5.2-.6 7.8v.4c-.4 2.4-.6 5-.8 7.4a1.82 1.82 0 01-.6 1.4 7.77 7.77 0 00.4-3 6 6 0 01.2-2.6l-.2-.2c-.4 0-.4.4-.4.8-.2 1-.2 2-.4 3a13.2 13.2 0 01-.2 2.8 56.5 56.5 0 00-.4 5.8v.6a39.35 39.35 0 00-.2 8.4v1.6a30.08 30.08 0 000 6c0 2 0 4.2.2 6.2 0 2.2 0 4.2.2 6.4 0 .8.2 1.6.2 2.6a7.87 7.87 0 00.4 1.2 5.27 5.27 0 00.2-2.4c0-.8-.2-1.6-.2-2.4v-2a11.8 11.8 0 01.4 2.8 25.12 25.12 0 001.2 7.6v.4a.73.73 0 00.2.6 43.93 43.93 0 012.8 3.6c.8 1 2.2 1.4 3 2.4l.6.4a4.37 4.37 0 011 .6c.4.4.8 1 1.2 1 .8 0 .6.8 1.2 1l.4-.4a14.92 14.92 0 006.2 3 3.92 3.92 0 003-.2 29.09 29.09 0 008.6-5.2 46 46 0 007-8.2 25.47 25.47 0 002.6-3.8c1.6-2.4 3.2-5 4.6-7.4a20.83 20.83 0 012-3.6 7 7 0 001-1.6c.6-2.4 2.4-4.6 2.6-7.2v-.2c.8-1.58 1.4-3.18 2.2-4.78zm-51.8 4.4c0 1.2-.2 2.6-.2 3.8v.4a.2.2 0 00-.2.2c0-1.59-.2-3.01.4-4.39zm0-10.6a9.41 9.41 0 01-.4 4.6v-4.2c0-.19.2-.19.4-.41zm0 6.6v1.8a1.5 1.5 0 010-1.79zm-.2 11.2a.7.7 0 00.2.4.2.2 0 01-.2-.2zm.4-20.8v-4.4c.6 1 .2 2 .2 3a3 3 0 01-.2 1.39zm.4-13.4l.2.2v-.2a.2.2 0 00-.2-.2zm.2-35.8c.2-.2.4-.4.6-.4a19 19 0 001.2-4 25.56 25.56 0 00-1.8 4.41zm.4 30.6c-.4.4-.4.6-.2.8.4-.21.4-.21.2-.79zm0 70.6c.6 1 .6 1 .2 3.4a5 5 0 00-.2-1.6zm.2-85.4l.2.2v-.2zm.4 145.6a6.33 6.33 0 00.4 2.79c.4-1.19-.2-1.78-.4-2.78zm.2-136h.2v.2c-.2.01-.2.01-.2-.19zm.4 88.4a2.15 2.15 0 01.2 1.2c-.4-.39-.4-.59-.2-1.19zm.8-93.2a3.63 3.63 0 01-.6 2.6 4.46 4.46 0 01.6-2.59zm-.4 97.8a7.5 7.5 0 01-.2-2c.4.2.2.6.2 1zm.6 2.79c-.2 0-.2 0-.2-.2l.2-.19zm0-127a5.69 5.69 0 001.2-2.8 3.51 3.51 0 00-1.2 2.8zm0 23.8l.6-1.6a1.34 1.34 0 01-.6 1.62zm.2 105h-.2v-.39a.2.2 0 01.2.2zm1.4 16c-.4-2.59-.6-5-.8-7.59a8.58 8.58 0 00-.4-2.21 25.44 25.44 0 01-.2-4c.2 0 .2 0 .4.21a20.57 20.57 0 00.2 3.4c.2 2.39.6 4.8.8 7.39.2 1.21.2 2.61.4 3.8-.6-.18-.4-.58-.4-.99zm-.4-147.59V37a1.56 1.56 0 00.4-1.6c.8-.6.8-.6 1-1.8-.2 0-.2 0-.4.2l-.6 1.6c-.2.6-.6 1.02-.4 1.82zm.2 19c0-.4.2-.6.2-.8l1.2-1.6a4.29 4.29 0 01-.8 2.4.38.38 0 01-.6.01zm.8 132.79c0-.2-.2-.39-.4-.59.2 0 .2 0 .2-.2a1.48 1.48 0 01.2.79zm.4-142.19a.2.2 0 00-.2.2c-.2.2-.2.4-.2.8.2-.2.4-.4.4-.6.2-.21 0-.21 0-.39zm.4 146.19v.21c-.2 0-.2-.21-.2-.41h.2zm.2 2.8c0-.2-.2-.2-.2-.39l.2-.2zm2-148.19l-1.8 5h-.2c0-.2-.2-.4 0-.6.6-1.6.8-3.2 1.8-4.6.2.01.2.01.2.21zm-2-16c.4-.2.4-.4.6-.6-.2.21-.6.21-.6.61zm.8 173.79c.2 1 .2 1.81.8 2.4 0-1.58 0-1.58-.8-2.39zm.8-182.19a.2.2 0 00.2-.2.2.2 0 00-.2.21zm.2 186.59c.2.2 0 .41.2.6l.4.2a1.49 1.49 0 01-.2-.8zm.2-164.19h.2v.2a.2.2 0 00-.2-.19zm.4 167.39l.4 1c.2-.78.2-.78-.4-1zm.2-186l.2.2a.73.73 0 01.6-.2zm.6-.6l.4-.4c.2-.2.2-.4.4-.4.2-.2.4-.4.4-.6-.2.2-.2.4-.4.4-.2.2-.2.4-.4.4 0 .2-.2.42-.4.62zm0 10.6v.2l.4-.4v-.2zm.2 180.39a.7.7 0 01.2.4c0-.2.2-.2.4-.2l-.4-.4a.2.2 0 00-.2.22zm.8-193.59c.8-1 1.6-2 2.4-3.2a74.19 74.19 0 019.4-10l3.4-2.8c.4-.2.6-.4.6-.8-.6.2-1 .6-1.6.8a61.58 61.58 0 00-13.4 14c-.4.62-1 1.2-.8 2.02zm.8 8.8c-.2.4-.6.6-.2 1.2.6-.38.4-.8.2-1.18zm0 5.4h.2v.2zm4.6-13.6c-1.2 1.8-2 3.6-3 5.2a.73.73 0 00-.2.6c-.4 0-.6.4-.6.8.6 0 .6-.4.6-.8a7.55 7.55 0 002-2.4 60.39 60.39 0 017-9 80.42 80.42 0 017.6-6.8l3.2-2.4c.2-.2.2-.4.4-.6-.4.2-1 .2-1.4.4l-1.6 1a66.37 66.37 0 00-14 14.02zm-3.4 12.4a.2.2 0 01.2-.2v.2a.7.7 0 00-.4.2zm2.6-5.6a11.16 11.16 0 011-1.6 3.82 3.82 0 01-.6 1.6l-1.2 2.2c-.4.8-.6 1.4-1 2.2a1.1 1.1 0 00-.6 1 1.64 1.64 0 01.2-1.4c.6-1 1-2 1.4-2.8a4.18 4.18 0 00.8-1.18zm-1.4-10.8a.49.49 0 00.8-.2 5.39 5.39 0 001.4-1.6 31.87 31.87 0 012.6-2.6c1.6-1.6 3.2-3.2 4.6-4.8-.4-.2-.6.2-1 .6a31.84 31.84 0 00-5.8 5.8c-.4.2-.4.6-.6.8a5.3 5.3 0 00-1 1.2 4.36 4.36 0 00-1 .8 12.75 12.75 0 00-.4 1.4 1.05 1.05 0 00.4-1.38zm3 8c.2-.2.4-.2.8-.2-.4.02-.6.22-.8.22zm1-1.4l.4-.4c-.2.2-.2.4-.4.6a1.5 1.5 0 00-.2 1 2.54 2.54 0 01.2-1.2zm.8-.8v.2c-.2 0-.2.2-.4.2zm2-2.2c-.4.2-.6.6-.8.8l-1.2 1.4a2.54 2.54 0 012-2.2zm1-1.6a4.35 4.35 0 00-1 1.6 1.17 1.17 0 011-1.58zm1.2-1.4h.2l-.2.2h-.2a.2.2 0 01.2-.2zm2-11.6c.2.2.4 0 .6 0h-.6a5.3 5.3 0 00-1 1.2c.8-.18 1-.38 1-1.18zm9.2-.8h.2l-.2-.2zM79.33 119l.2.2c.2 0 .2 0 .2-.2zm2.4-5c-.4.2-1 0-.8.8zm.6-10v.2h-.2zm.2 7.6a10.34 10.34 0 001.2-2.6 1.52 1.52 0 00-.8.4 4.31 4.31 0 00-.4 2.22zm2.6-6.4a92 92 0 004-13.2c1-3.6 1.8-7.2 2.6-10.8a1 1 0 00-.2-1.4 1.69 1.69 0 01-.4 1.2l-1.8 7.8c-1.4 5.4-2.8 10.8-4.6 16.2l-.6 2.2a1.76 1.76 0 00-.4 1.6c0-.4.6-1 .4-1.6a3.81 3.81 0 001-1.98zm-.4 11.4a.2.2 0 00-.2-.2zm14.6-45.8a.2.2 0 00-.2-.2c0 .2-.2.4-.2.6a30.38 30.38 0 00-1.2 4l-3 12.8c-.6 2.2-1.2 4.2-1.8 6.4a77.89 77.89 0 01-3.6 11.6 65 65 0 01-3.6 8.6 8.34 8.34 0 00-.4 1.2 2.16 2.16 0 001-.8l2.4-5.6a48.85 48.85 0 012-4.8 42.58 42.58 0 002.2-6.6 143.9 143.9 0 004-16c.8-3.2 1.6-6.6 2.2-9.8a3.4 3.4 0 00.2-1.38zm-6 8.8a2.75 2.75 0 00-1 1.6 32 32 0 01-1 4.2c-1.2 6-3 11.8-4.6 17.6-.2.2-.4.4 0 .6 0-.2.2-.4.2-.6a105 105 0 003.4-10.4l3-13a19.85 19.85 0 01.6-3c-.8 1.4-1 1.82-.6 3.02zm-.4-4.2l-.2-.2a5.75 5.75 0 00-.6 3.2 5.64 5.64 0 00.8-2.98zm.4-4.2c0 .2 0 .2.2.2v-.2a.2.2 0 00-.2-.2zm2-9.4a5.63 5.63 0 00.2 1.6 23.89 23.89 0 00.6-6.4c-.4 0-.4.2-.4.4a32.7 32.7 0 00-.4 4.42zm1 32.6c-.2.6-.6 1.2-.8 1.8-.2-.98-.2-.98.8-1.78zm.2-2.6v-.2c.2 1-.2 1.8-.2 2.8a5.54 5.54 0 01.2-2.58zm0-.2c.2-1.2.6-2 .8-3.2a3.6 3.6 0 01-.8 3.22zm3-11.6c0-.2.4-.6.6-1l-1.8 7.4a4.71 4.71 0 01-.4 1.6c0 .2-.4.2-.6.4.8-1.6.8-3.4 1.2-5zm-1-60.2c-.2.2-.2.2-.4.2a.62.62 0 00.4-.18zm.6 3.2v-.2c.2.02 0 .2 0 .2zm1.2 42.8c-.6 1.2-.6 1.2-.4 2a2.33 2.33 0 00.4-1.98zm-.4-38.2c.4-.2.8-.4.8-.8-.6.02-.6.42-.8.82zm.2 1.8c.2 0 .2.2.4.2v-.8s-.2-.2-.2 0c-.4.02-.2.42-.2.62zm.4 32.4c0 .2-.2.4-.4.6.6.02.4-.4.4-.58zm-.2 15h.2c-.2 0-.2 0-.2.2zm.8-45.8a.2.2 0 01-.2-.2l-.2.2v.4zm-.4 44a.73.73 0 00.2-.6v.6zm1.2-24.8c-.8.6-.8.6-.6 1.2.6-.58.6-.58.6-1.18zm-.6-14.6a.2.2 0 01.2.2v-.6c0 .22 0 .22-.2.42zm.2 37.6v.6a2.54 2.54 0 01-.2-1.2c.4.22.2.4.2.62zm.8-31.2a32.7 32.7 0 01-.4-4.4.73.73 0 01-.2-.6 15.17 15.17 0 00.2 6c.4-.18.4-.58.4-1zm.6 18a2.94 2.94 0 01.2 2.2 29.21 29.21 0 00-.6 4.4 2.16 2.16 0 01-.6 1.4 11.71 11.71 0 00.4-2.6v-1.2c.2-1.2.2-2.2.4-3.2a4.07 4.07 0 00.2-1zm-.2-11.2l.2.2a.2.2 0 00.2-.2l-.2-.2a.2.2 0 00-.2.22zm.4 6.2h.2c-.2.8-.2 1.6-.4 2.2a8.2 8.2 0 01.2-2.2zm.4-8.6v.2l-.2-.2zM180.33 127.62c-.2.2-.6.6-.6.8l.2-.2c-.4.4-.6.6-.6 1l.2-.2c-.4.4-.6.6-.6 1v-.2a1.53 1.53 0 00-.4 1v-.2l-.8.6a69.4 69.4 0 00-5 9.2c-.2.8-.8 1.4-.6 2l-.4.6h.2c-.4.2-.4.6-.6.8h.2a3.43 3.43 0 00-1.2 3v-.2c-.4.2-.4.6-.4 1v-.2a6 6 0 00-1.6 3.8c-.8.79-.8 2-1 3V154a3.39 3.39 0 00-.6 2.21c-1 .79-1 1.79-1.2 3a4 4 0 00-.6 2.2 4.17 4.17 0 00-.8 3.39 8.86 8.86 0 00-1.2 5h.2c-.2.41-.2.81-.4 1.2h.2a2.24 2.24 0 00-1 2c-.2 1.61-.6 3.21-1 5-.8 4.61-1.4 9.21-1.8 13.6l.4 1 .4.2a.2.2 0 00-.2.2c0-.2 0-.2-.2-.4l.2.4a.89.89 0 000 1v-.79a.74.74 0 00.2-.41l.6-5.8a50.21 50.21 0 00.8-5.79c.2-.6.2-1.21.8-1.41.2.61.4 1 .2 1.41a36.05 36.05 0 01-.6 4.59c-.4 3.2-.8 6.2-1 9.41l.2.59c-.2.8-.2 1.61-.4 2.41l-.2 2h-.2a23.13 23.13 0 01-.8 3.59c-.8 2-1.4 4.2-3 5.8a8.22 8.22 0 01-7.2 3.2 12.31 12.31 0 00-3.8-.4 4.2 4.2 0 01-2.8-1.4 25.1 25.1 0 01-2.2-3.4c-1.8-3.19-3-6.6-4.6-9.8a7.88 7.88 0 01-1-2.8l-.6-4c-.6-2-1-3.79-1.4-5.79a19.14 19.14 0 01-1-3.6 14.24 14.24 0 01-.8-5.2 8.1 8.1 0 000-2.2c-.2-1.8 0-3.8-.2-5.6.2-.81-.4-1-1.2-.61v.21a3.41 3.41 0 00-.6-1.21 1.63 1.63 0 00-.6 2l-.4.41a14.22 14.22 0 00-.8 3.8 1.51 1.51 0 00-.4 1V174a43.74 43.74 0 00-4.2 9.41 2.89 2.89 0 01-.4 1.2 10.91 10.91 0 00-3 3.8c-1.4 2-3.4 3.19-5.2 4.8-4.4 1.59-8.6 2.2-12.6.39a42.62 42.62 0 01-5-3 16.4 16.4 0 01-5-7.61 25 25 0 01-1.8-7.39 23.84 23.84 0 00-.6-4 12.35 12.35 0 01.2-2.61c.2-2.79 0-5.39 0-8.19a8.61 8.61 0 010-3.2 16.66 16.66 0 01.8-3 13.24 13.24 0 001.2-5.4c.2-.8.2-1.6.4-2.4.6-2 1-4.2 1.6-6.4a14.52 14.52 0 011.8-4.4 40 40 0 002-4.2 7 7 0 014-4.8 4.09 4.09 0 001.6-1.6 11.48 11.48 0 001.6-1.8 4.74 4.74 0 013-1.8 13.24 13.24 0 019.8 1.8 6.82 6.82 0 013.6 4.2 9.76 9.76 0 001.2 2.6 25.94 25.94 0 011.6 6.8 15.94 15.94 0 00.6 3c0 .2.2.2.4.2s.4 0 .2-.2a2 2 0 00.6-1.6 23.9 23.9 0 001-4.4 35.92 35.92 0 012.8-10.8c.4-1.2 1-2.6 1.6-4a3.22 3.22 0 01.8-1.4 1.81 1.81 0 012.4-.4c1 .6 2.2 1 2.8 2.2a3.21 3.21 0 011 2.2 9 9 0 00-.2 2.2c0 1.2-.2 2.8.6 4a2.82 2.82 0 01.2 1.8 9.47 9.47 0 00-.2 3.4 9.41 9.41 0 01-.4 4.6c-.6 1-.4 2.4-.4 3.6 0 2.6.2 5.4 0 8a2.55 2.55 0 001 2.2 1.26 1.26 0 01.2 1.8c-.6.6-.6.8-.2 1.2 0 .6.4 1 .4 1.6 0 .2-.8.2-.6 1a3.4 3.4 0 01.2 1.4h.2a7.5 7.5 0 00-.2 2h.2c-.2 0-.2 0-.2.4 0 2.59 0 5.4.2 8.2a3 3 0 00.8 2.2 2.45 2.45 0 01.8 1.6h-.2a2 2 0 00-.6.2c.2.8.2 1.8.4 2.59 0-.2 0-.2-.2-.2 0-.19 0-.19-.4-.39.2.2 0 .39 0 .59a3.73 3.73 0 00.4 1.6l.2.2.2-.2v-.39a3.66 3.66 0 00.4 1.39l.6 1.2.2.61a16.66 16.66 0 00.8 3c.2.39 0 .8 0 1.2a1.54 1.54 0 00-.6 1.39c.4 1.61 1 3.21 1.4 4.8a.7.7 0 00.4.2 4.91 4.91 0 00.2-1.59 12.45 12.45 0 00.6 2.19c1.4 1.81 1.6 4.2 1.8 6.4a5.87 5.87 0 00.4 2 2 2 0 00.8 1c.8 0 1.2.6 1.8 1s1.2.6 1.4-.4c.6-1.8 1.4-3.6 1.8-5.39a13.61 13.61 0 00.4-3 7.17 7.17 0 01.4-3.6v-1.81a20.27 20.27 0 01.6-3.39 3.49 3.49 0 00.4-1v-.2a2.41 2.41 0 01.6-2l.2.4v-.2a12.62 12.62 0 00.6-3.81 8.22 8.22 0 01.8-4.39 3.45 3.45 0 00.2-1.41c.4-.19.4-.8.4-1.19 1-1.4 1-3.2 1-4.81a6.83 6.83 0 011-3.8c0-.19.4-.59.2-1 .4-2.19 1.8-4 2.4-6 .4-1.19 1.2-2.39 1.2-3.79.2-.21.2-.8.4-1.2 1.4-1.4 1.8-3.8 3.2-5.8 0 0 .2 0 0-.2 1-2.6 2.2-5 3.2-7.6a10.26 10.26 0 013-4.6 21.41 21.41 0 003-4.4 7 7 0 012.2-2.6s.4-.2.4 0c.2.2.4.4.4.6a14 14 0 00-1.2 1.8 1.51 1.51 0 01.8-.2c.4-.4.6-.8 1.2-1 .4-.4 1-1 1.6-.6.2.2.2.8.2 1.4h.2c-.2.2-.6.6-.6.8zm-84.8 16.6a1.61 1.61 0 00-.8 1.8 1.74 1.74 0 00.8-1.8zm1.2-4.4a1.39 1.39 0 00-.4 2 1.68 1.68 0 00-.6 2 5.87 5.87 0 00.6-2 1.55 1.55 0 00.4-2zm15.4 39.8c.2-.61.8-1.2 1.2-2a9.18 9.18 0 001.4-2.8c.6-1.39 1.4-3 2-4.59a24.63 24.63 0 001.8-5.8c0-.61 0-1.2.4-1.41a7.67 7.67 0 001.2-3.39 4.91 4.91 0 011-3 4 4 0 00.8-2.61 18.22 18.22 0 011-6.59c.6-1.2 1-2.4-.4-3.6-.2 0-.4-.6-.4-1a10.55 10.55 0 01-.6-2.4 35.35 35.35 0 00-1.6-6.6c-.6-2.2-1.8-4-2.8-6.2-1.2-2-2.4-2.4-4.8-1.6a8.11 8.11 0 00-1.8 1c-.6.4-1 1-1.6 1.4a9.34 9.34 0 01-1 2c-1.2 2.2-2.6 4.2-3.6 6.4-.6 1.2-1.4 2.6-1 4.2a.73.73 0 01-.2.6c-1 1.4-1.4 3.4-2.2 5a8.23 8.23 0 00-.6 1.6c-.2 1.6-.6 3.2-.8 4.6l-1.2 5.4c.4 1.6 0 3.2-.2 5-.2-.21-.4-.4-.6-.21l-.2.21a.28.28 0 00.4 0h.4a10.11 10.11 0 01.4 2.2 4.88 4.88 0 00.2 2.39c.2 2 .2 4.41.4 6.41 0 .59-.2 1-.2 1.79a1.93 1.93 0 00-.4 1.41 6 6 0 00.8 4.2 14.17 14.17 0 012.2 3.8c1.4 3.2 2.6 3.59 5 1a23.18 23.18 0 005.6-6.81zM97.93 169s0-.2-.2 0h-.2c0 .21 0 .41.4.41a.29.29 0 010-.41zm.6-32.59a4 4 0 001.2-2.2c-1.2.41-1.4 1.01-1.2 2.21zm2.6-6.8c0 .4 0 .4.6.8a.73.73 0 01.6-.2c.2-.4.2-.6.4-.8.2-.6.6-1 .8-1.6a1.2 1.2 0 00.8-.2 20.29 20.29 0 001.8-2.6c-.2.2-.8-.2-1 0-.6.8-1.4 1.2-1.6 2.2a2.39 2.39 0 00-1.6 1.8c0 .21-.4.41-.8.61zm1 8.8v.2c.2-.4.4-.4.4-.6v-.4c-.2 0-.4.2-.6.4.2.21.2.21.2.41zm1.6-3.4c.2-.4.4-.6.4-.8-.2.21-.2.41-.4.79zm1-2.8c0 .4.2.8 0 1.2l2.6-3.8c.4-.4.8-1.2 1.4-1.4.2-.6.6-.8.4-1.4.6 0 .8-.4 1-.8-.6 0-.8.2-1 .8-.4.2-.8.2-1.2.6a20.1 20.1 0 00-3.2 4.81zm9.4 50.2a4.25 4.25 0 00-1.8 2.39c1.2-.58 1.8-1.18 1.8-2.38zm.4-.8c-.2.19-.4.39-.2.6a.39.39 0 00.2-.59zm3.8-4.61c.4 0 .6-.2.4-.59.4-.2.6-.41.6-.8a3.31 3.31 0 001.2-2.81.53.53 0 01.6-.59c-.4 0-.6-.21-.8 0-.2-.41-.2-.8-.4-1.21l.8-.79a3.45 3.45 0 01-.2-1.41 2.11 2.11 0 00.6-2.19c-.4.8-.8 1.39-.6 2.19a2.14 2.14 0 00-.6 2.2 1.58 1.58 0 00-1 1.21 85.91 85.91 0 01-4.2 8.59c-.2.2 0 .61 0 .81.4-.2.8-.2 1.2-.4v.4l.6-.61c0-.2.2-.39.4-.79 0-.21.2-.41.4-.6.2-.4.4-.61.4-.81.4-.2.4-.39.2-1 .6.2.6-.38.4-.8zm.6 8c-.4 0-.6.21-.4.61.2-.19.4-.39.4-.61zm9.6-22.19c0-.4 0-.81-.4-.81l-.4.41c-.6 2-1.2 4-2 6a67.71 67.71 0 01-4 10.59c-.8 1.8-1.8 3.8-2.8 5.61a1.09 1.09 0 001-.61 11.72 11.72 0 001.8-2.59 59.19 59.19 0 003.2-7.41 80.31 80.31 0 003.6-11.18zm-7 2a1.77 1.77 0 00.2 1 1.84 1.84 0 00-.2-1zm8.6-1.19l-.2-.2v.2c-1 .8-1.2 1.6-.8 3.19.4-.19.4-.39.6-.8.2-1.01.2-1.79.4-2.39zm.6 10.19c0 .2 0 .2.2.41v.59c0 4-1-5-.2-1zm1-49.59c-.2.2-.4.4-.6.4v.6l.4-.4c0-.2.2-.4.2-.6zm5.8 68.39a.72.72 0 01-.2-.6.71.71 0 00-.2-.59l-.4-.2c.2.2.2.2.2.39.2.4.2.81.4 1.2a.2.2 0 01.2.2zm2.2-15.39a2.58 2.58 0 01-.2-1.21.72.72 0 00.2.6zm19.4 19.39a.9.9 0 00-.6.61v.39c.2-.19.4-.19.4-.39a.74.74 0 01.2-.61zm0-.19a4.76 4.76 0 01.4-1.61l.2-.2a1.53 1.53 0 00-.6 1.81zm6-35.2l-.2.2a.2.2 0 01.2-.2zm.4-1.8v-.2h.2zm.2-.2zm3.6-18c0-.2-.2-.4-.4-.6a1.51 1.51 0 01-.2.8 1 1 0 01-.4.8 13.65 13.65 0 00-1.8 4.4c-.2.2-.2.4-.6.8v.2c.2.2.2.2.2.4.4.2.4.4.4.6a.73.73 0 01.2-.6c.2-.6.2-.8.6-1a40.73 40.73 0 001.8-4.4c.2-.2.2-.4.4-.8.2-.2 0-.4-.2-.6zm-1 10h.2v.2a.2.2 0 01-.2-.2zm7.8-23a23.81 23.81 0 00-1.8 3 2.61 2.61 0 001.8-2c.2-.22 0-.6 0-1zm.4-.8c0 .2-.2.2-.2.4.2 0 .4-.2.2-.4z"/><path class="cls-1" d="M241.13 132.22l.2.2h-.8a2.17 2.17 0 01-1 .2h.2a1.18 1.18 0 00-1 .4 1.8 1.8 0 00-1 .2 1.51 1.51 0 00-.8.2c.2.2.2.4 0 .4-.2.2-.2.2-.2.4-.2-.2-.2-.2-.4 0a46.92 46.92 0 01-4.4 2c0 .2 0 .2-.2.2h-.2a10.59 10.59 0 01-2 1.2l-.8.6a10.74 10.74 0 00-4.4 2.6v-.4c-1.4 1-12.8 7.8-13.8 9.2a14.21 14.21 0 00-3 3 3.94 3.94 0 00-.8 1.6h.2v.4a1.52 1.52 0 00.4.8 19.36 19.36 0 015 7.59c1 .8 1.2 2 1.8 2.8a.75.75 0 00.2.61c.6 1 1.8 2 2.4 3.2.6 1 .6 2.19 1.4 3.19.2.2.8.61.6.81a2.58 2.58 0 001.2 2.6 1.51 1.51 0 01.2 1.79c0 .21.4.6.4.6 1.6.2 1.2 1.4 1.6 2.4.2.21 0 .8-.2 1-.2-.39-.2-.59-.4-.79-.4-.21-.4 0-.6 0-.4-.21-.2 0-.4.2.2.2 0 .2 0 .39.8 3.41.6 7 .8 10.8v.4l1.4-.79a9.66 9.66 0 00.2 1 2.33 2.33 0 000 2c-.4.59-.8 1-1 1.39a45 45 0 01-3.8 9 23.5 23.5 0 01-2.2 4c-3.2 5-7.8 7.8-13 10.4a26.62 26.62 0 01-8.4 2.4 12.33 12.33 0 01-4 .4 35.58 35.58 0 01-10.4-3.6 10.54 10.54 0 01-6-8 24.05 24.05 0 01-1.4-4.61 19.77 19.77 0 01-.8-6l.2-1.19a11.8 11.8 0 001-4.41c-.2-1 .2-1.4.4-2.2.6-2.39 1.6-4.39 1.4-6.59 0-1.8.8-3.41 1.8-5.41a19.53 19.53 0 011.8-2.59 27 27 0 003.2-5.8 6.13 6.13 0 011.8-2.8 11 11 0 002.4-3.81 8.79 8.79 0 012-2.59c1.8-1.8 3.6-3.4 5.2-5.21l.6-.59a7.88 7.88 0 001.8-2.2c-2.2-1.8-4.4-3-9.4-5.2a44.55 44.55 0 01-10.4-6.8 10.73 10.73 0 01-3.4-4 13.68 13.68 0 01-.4-12.2c.6-2 2.4-3.6 4.4-5a51.55 51.55 0 0110.2-5.8c6.4-2.4 12.4-2.4 17.4.2a3.26 3.26 0 011.8 4c-.2.2-.2.8-.6.8-.6.4-1 0-1-.4 0-.2-.2-.2-.4-.6-.2-.2-.2-.6-.6-.8-1.4-2.6-6.6-3.6-11.4-1.2a28.06 28.06 0 00-6.8 5.8 3.06 3.06 0 00-1 1.4c-.6 2.2-1.8 4.8-1 6.8a6.55 6.55 0 01-.6 4.2 1.33 1.33 0 00.8 1h-.2c2 3.8 5.4 6.6 10 8.8l5.6 3.2 3.8-2.4c3.2-4.2 17-11 21.2-13.2.8-.6 2-1.2 3-1.8a1.5 1.5 0 001-.2 15.33 15.33 0 014.6-2l-.4-.4a5.54 5.54 0 001.8-.2h.2a6.68 6.68 0 003-.6 9.91 9.91 0 013.4-.4s.4.2.2.4c.4.4.2.6.2.6a7.09 7.09 0 00-2.2.6c.4.2.6.4.8.2.4 0 .8.2 1.4.2.4.2 1.4 0 1.4.8a1.75 1.75 0 01-.8 1.21zm-64 54.79a7.16 7.16 0 00-.6 1.21c.2-.41.6-.6.6-1.22zm4.4-7.2a2.32 2.32 0 01.6-1.2c0-.19.4-.6.6-.8 1.2-2 2.2-4.19 3.4-6.39l.6-.8c.4-.61.4-.81.6-1l.6-.81c1.2-1.39 2.4-3 3.8-4.59l1.6-2.4a1.71 1.71 0 000-1.4c-2 1.4-3.2 3.39-5 5.2-.4 1-1.2 1.6-1.4 2.8-.6.2-.4.59-.4 1-.6.2-.6.39-.6.8-.6.2-.8.4-.6.79-.2 0-.2 0-.4.21-1.8 1.79-2.6 3.79-3.8 6 0 .39.2.79.2 1.2-.6.39-.8.59-.6.8-1.2 1.4-2.2 3-1.8 4.79a1.1 1.1 0 00-.6.8c-.2.41 0 .81-.2 1.41 1.4-.41 1.6-.41 1.6-1.8v-.2a25.32 25.32 0 001.8-4.41zm.4 12.2a5.67 5.67 0 00-1.2 3.21 11.36 11.36 0 01-.2 2.59 2.23 2.23 0 001-1.59c.2-1.41.2-3 .4-4.22zm24-23.39c-1.6-2.2-3-4.4-4.6-7-.4-.61-1.2-.61-2.2.2l-2 2.4c-2 2.79-4.2 6-6.2 9a2.51 2.51 0 01-1.2 1.4 1.48 1.48 0 01-.4-1.2c1-.8 1.2-1 1-1.8a1.36 1.36 0 00-1.2 1.6l-.6.4a45.38 45.38 0 00-6.4 15 12.3 12.3 0 00-.2 2.8c.6-1.41 1-2.61 1.4-3.8.8-1.61.8-3.61 2.4-5.2.2 1-.4 2.2-.6 3a44.7 44.7 0 00-2 9.8 26.78 26.78 0 00-.2 4.2V207a10.55 10.55 0 005 9c1.4 1 3 1 5 .21 1.2-.81 2.2-1.41 3.2-2.21a55.64 55.64 0 006.6-5.4 13 13 0 004.4-5.6 26.62 26.62 0 011.8-4.79c1-2.61 1.6-5 2.2-7a13.84 13.84 0 000-7c-.6-2.6-1.4-5.41-2.2-8a49.63 49.63 0 00-3-7.59zm-9.6-5.61c-1.8 1.41-2.8 2.61-3.2 4.21-.4.2-.8.4-.6.79-1.4 1.21-2 2-2 3.41a4.76 4.76 0 002-3.41c.6-.2.6-.39.6-.79h.4a9.7 9.7 0 003-4.4zm-3-2.79a3 3 0 002.6-2.4 4.42 4.42 0 00-2.6 2.4zm3.4 2.6c.4 0 .4-.4.4-.81-.4.41-.6.41-.4.81zm.6-.81a2.53 2.53 0 001.4-1.79 2.25 2.25 0 00-1.4 1.78zm14.8 34.8a37.78 37.78 0 01-8.8 14.8.2.2 0 00-.2.2.74.74 0 01.2.6h.4c.2-.19.6-.19 1-.6l4-4.59a.71.71 0 00.6-.21 2.57 2.57 0 01.6-.79c1-.61 1.8-1.41 1.6-2.61.4-.19.8-.39.4-.8a2 2 0 00.8-1 3.15 3.15 0 00.8-2.39c.6-.2.6-.81.4-1.41a2.89 2.89 0 01.4-1.2 31.87 31.87 0 00.6-4.59.43.43 0 00-.4-.41c-.2.2-.6.2-1 .41l.2.2a6.81 6.81 0 00-.8 1.8 20 20 0 00-.8 2.59zm-5.4-50l-3 2.4a.73.73 0 00.2.6c.2-.2.4 0 .6 0 .8-.99 2-1.59 2.2-2.99zm3 66.79l-.2-.2h-.2zm4.4-6.39a2.9 2.9 0 00-.6 1.39c-.4.4-.4.8-.6 1.2 0 .2.6-.2 1.6-.8a28.81 28.81 0 005.8-13.2c-1.4.61-1.4 1.8-2 2.8a28.52 28.52 0 01-4.2 8.62zm9.4-72l-.2-.6a9.24 9.24 0 01-1.4 1.4 2.47 2.47 0 001.6-.79zm13.6-5.4a5.92 5.92 0 00-2 .4c0 .2.2.4.4.6a1.52 1.52 0 00.8-.4c.4.01.4-.41.8-.59zm.8-.2h-.6a.38.38 0 00.6.01z"/><path class="cls-1" d="M303.33 132.22l.2.2h-.8a2.2 2.2 0 01-1 .2h.19a1.2 1.2 0 00-1 .4 1.79 1.79 0 00-1 .2 1.51 1.51 0 00-.8.2c.2.2.2.4 0 .4-.2.2-.2.2-.2.4-.2-.2-.2-.2-.4 0a46.92 46.92 0 01-4.4 2c0 .2 0 .2-.2.2h-.2a10.59 10.59 0 01-2 1.2l-.8.6a10.74 10.74 0 00-4.4 2.6v-.4c-1.4 1-12.8 7.8-13.8 9.2a14.21 14.21 0 00-3 3 3.94 3.94 0 00-.8 1.6h.2v.4a1.52 1.52 0 00.4.8 19.36 19.36 0 015 7.59c1 .8 1.2 2 1.8 2.8a.75.75 0 00.2.61c.6 1 1.8 2 2.4 3.2.6 1 .6 2.19 1.4 3.19.2.2.8.61.6.81a2.58 2.58 0 001.2 2.6 1.51 1.51 0 01.2 1.79c0 .21.4.6.4.6 1.6.2 1.2 1.4 1.6 2.4.2.21 0 .8-.2 1-.2-.39-.2-.59-.4-.79-.4-.21-.4 0-.6 0-.4-.21-.2 0-.4.2.2.2 0 .2 0 .39.8 3.41.6 7 .8 10.8v.4l1.4-.79a9.66 9.66 0 00.2 1 2.33 2.33 0 000 2c-.4.59-.8 1-1 1.39a45 45 0 01-3.8 9 23.5 23.5 0 01-2.2 4c-3.2 5-7.8 7.8-13 10.4a26.62 26.62 0 01-8.4 2.4 12.33 12.33 0 01-4 .4 35.58 35.58 0 01-10.4-3.6 10.54 10.54 0 01-6-8 24.05 24.05 0 01-1.4-4.61 19.77 19.77 0 01-.8-6l.2-1.19a11.8 11.8 0 001-4.41c-.2-1 .2-1.4.4-2.2.6-2.39 1.6-4.39 1.4-6.59 0-1.8.8-3.41 1.8-5.41a19.53 19.53 0 011.8-2.59 27 27 0 003.2-5.8 6.13 6.13 0 011.8-2.8 11 11 0 002.4-3.81 8.79 8.79 0 012-2.59c1.8-1.8 3.6-3.4 5.2-5.21l.6-.59a7.88 7.88 0 001.8-2.2c-2.2-1.8-4.4-3-9.4-5.2a44.55 44.55 0 01-10.4-6.8 10.73 10.73 0 01-3.4-4 13.68 13.68 0 01-.4-12.2c.6-2 2.4-3.6 4.4-5a51.55 51.55 0 0110.2-5.8c6.4-2.4 12.4-2.4 17.4.2a3.26 3.26 0 011.8 4c-.2.2-.2.8-.6.8-.6.4-1 0-1-.4 0-.2-.2-.2-.4-.6-.2-.2-.2-.6-.6-.8-1.4-2.6-6.6-3.6-11.4-1.2a28.06 28.06 0 00-6.8 5.8 3.06 3.06 0 00-1 1.4c-.6 2.2-1.8 4.8-1 6.8a6.55 6.55 0 01-.6 4.2 1.33 1.33 0 00.8 1h-.2c2 3.8 5.4 6.6 10 8.8l5.6 3.2 3.8-2.4c3.2-4.2 17-11 21.2-13.2.8-.6 2-1.2 3-1.8a1.5 1.5 0 001-.2 15.33 15.33 0 014.6-2l-.4-.4a5.54 5.54 0 001.8-.2h.2a6.68 6.68 0 003-.6 9.91 9.91 0 013.4-.4s.4.2.2.4c.39.4.2.6.2.6a7 7 0 00-2.2.6c.39.2.6.4.8.2.4 0 .8.2 1.4.2.4.2 1.4 0 1.4.8a1.79 1.79 0 01-.79 1.21zm-64 54.79a7.16 7.16 0 00-.6 1.21c.2-.41.6-.6.6-1.22zm4.4-7.2a2.32 2.32 0 01.6-1.2c0-.19.4-.6.6-.8 1.2-2 2.2-4.19 3.4-6.39l.6-.8c.4-.61.4-.81.6-1l.6-.81c1.2-1.39 2.4-3 3.8-4.59l1.6-2.4a1.71 1.71 0 000-1.4c-2 1.4-3.2 3.39-5 5.2-.4 1-1.2 1.6-1.4 2.8-.6.2-.4.59-.4 1-.6.2-.6.39-.6.8-.6.2-.8.4-.6.79-.2 0-.2 0-.4.21-1.8 1.79-2.6 3.79-3.8 6 0 .39.2.79.2 1.2-.6.39-.8.59-.6.8-1.2 1.4-2.2 3-1.8 4.79a1.1 1.1 0 00-.6.8c-.2.41 0 .81-.2 1.41 1.4-.41 1.6-.41 1.6-1.8v-.2a25.32 25.32 0 001.8-4.41zm.4 12.2a5.67 5.67 0 00-1.2 3.21 11.36 11.36 0 01-.2 2.59 2.23 2.23 0 001-1.59c.2-1.41.2-3 .4-4.22zm24-23.39c-1.6-2.2-3-4.4-4.6-7-.4-.61-1.2-.61-2.2.2l-2 2.4c-2 2.79-4.2 6-6.2 9a2.51 2.51 0 01-1.2 1.4 1.48 1.48 0 01-.4-1.2c1-.8 1.2-1 1-1.8a1.36 1.36 0 00-1.2 1.6l-.6.4a45.38 45.38 0 00-6.4 15 12.3 12.3 0 00-.2 2.8c.6-1.41 1-2.61 1.4-3.8.8-1.61.8-3.61 2.4-5.2.2 1-.4 2.2-.6 3a44.7 44.7 0 00-2 9.8 26.78 26.78 0 00-.2 4.2V207a10.55 10.55 0 005 9c1.4 1 3 1 5 .21 1.2-.81 2.2-1.41 3.2-2.21a55.64 55.64 0 006.6-5.4 13 13 0 004.4-5.6 26.62 26.62 0 011.8-4.79c1-2.61 1.6-5 2.2-7a13.84 13.84 0 000-7c-.6-2.6-1.4-5.41-2.2-8a49.63 49.63 0 00-3-7.59zm-9.6-5.61c-1.8 1.41-2.8 2.61-3.2 4.21-.4.2-.8.4-.6.79-1.4 1.21-2 2-2 3.41a4.76 4.76 0 002-3.41c.6-.2.6-.39.6-.79h.4a9.7 9.7 0 003-4.4zm-3-2.79a3 3 0 002.6-2.4 4.42 4.42 0 00-2.6 2.4zm3.4 2.6c.4 0 .4-.4.4-.81-.4.41-.6.41-.4.81zm.6-.81a2.53 2.53 0 001.4-1.79 2.25 2.25 0 00-1.4 1.78zm14.8 34.8a37.78 37.78 0 01-8.8 14.8.2.2 0 00-.2.2.74.74 0 01.2.6h.4c.2-.19.6-.19 1-.6l4-4.59a.71.71 0 00.6-.21 2.57 2.57 0 01.6-.79c1-.61 1.8-1.41 1.6-2.61.4-.19.8-.39.4-.8a2 2 0 00.8-1 3.15 3.15 0 00.8-2.39c.6-.2.6-.81.4-1.41a2.89 2.89 0 01.4-1.2 31.87 31.87 0 00.6-4.59.43.43 0 00-.4-.41c-.2.2-.6.2-1 .41l.2.2a6.81 6.81 0 00-.8 1.8 20 20 0 00-.8 2.59zm-5.4-50l-3 2.4a.73.73 0 00.2.6c.2-.2.4 0 .6 0 .8-.99 2-1.59 2.2-2.99zm3 66.79l-.2-.2h-.2zm4.4-6.39a2.9 2.9 0 00-.6 1.39c-.4.4-.4.8-.6 1.2 0 .2.6-.2 1.6-.8a28.81 28.81 0 005.8-13.2c-1.4.61-1.4 1.8-2 2.8a28.52 28.52 0 01-4.2 8.62zm9.4-72l-.2-.6a9.24 9.24 0 01-1.4 1.4 2.47 2.47 0 001.6-.79zm13.6-5.4a5.92 5.92 0 00-2 .4c0 .2.2.4.4.6a1.52 1.52 0 00.8-.4c.4.01.4-.41.8-.59zm.8-.2h-.6a.38.38 0 00.6.01z"/><path class="cls-1" d="M359.12 127.82v-.2c0 .2-.4.2-.4.6a1.07 1.07 0 00-.8.6l.2-.2c-.2.4-.6.6-1 1l-.4.6c-.2 0-.6.2-.8.2a3.45 3.45 0 01-1.2 1.2v.2c-.4.4-.6 1-1.2 1.2-.4.4-.6.8-1 1a2.55 2.55 0 01-1 1.4.43.43 0 00-.4.4 8.79 8.79 0 01-2.4 3.6.61.61 0 01-.8 0 .73.73 0 01-.2-.6 6.87 6.87 0 00-2.6 3.2 4.36 4.36 0 01-.8 1 3.8 3.8 0 00-1.4 2.2c.2-.2.8 0 1.2-.2a5.89 5.89 0 01-1 2.6 65 65 0 00-6 10.2c-1.4 2.19-3 4.6-4.4 7.19-1 2.21-2 4.61-3.2 7-2 3.41-3.8 7-5.6 10.61l-.4.39c-2 2.41-3.8 5.8-5.8 7.8a9.24 9.24 0 01-7.4 2.61 8.12 8.12 0 01-2.2-.41 37.11 37.11 0 01-4.6-1.2 6.8 6.8 0 01-3.4-4c-1-2.8-3.8-6.59-3.8-9.39 0-.2 0-.2-.2-.41a7.64 7.64 0 01-1.4-5 7.57 7.57 0 00-.2-2.2 27.43 27.43 0 010-8c0-1.6-.2-3-.2-4.4-.4-2.41 2.6-24.2 3-26.6 0-1 .2-2.2.2-3.2 0-1.6.4-3 .4-4.4.2-1.6 1.6-3.2 1.6-4.8a7 7 0 011.2-2.8c.4-.2.6-.6 1-.8.2.2.8.4 1 .6 1.6-.2 2.2.2 2.4 1.6.2.4 1.8 1 1.8 1.4l.6 2.6c.2.2.4 0 .6.2.2.6.4 1.4 0 1.8-1 1-1.2 1.8-.8 2.6.2 1.2-.2 2.4 1.2 3.2a2 2 0 01.2.6c.2 2-1 23.4-1.4 25.59a.69.69 0 00-.4.21.69.69 0 01-.4-.21c0-1.19 1.6-22.19 1.6-23.39a2.54 2.54 0 00-.2-1.2c0-.2-.2 0-.2-.2a.2.2 0 00-.2.2c0 1.4-1.6 2.8-1.4 4.2l.2 23.6a1.32 1.32 0 01.2 1.2 31.09 31.09 0 00.2 8.59 45.68 45.68 0 01.4 5.21c0 .4-.2.79.4.79.4.21.6-.2.8-.39.2 2.19.8 4.39 1 6.6a4.11 4.11 0 010 2.2c0 .59-.4 1.2.2 1.39a2.27 2.27 0 001-.19 4 4 0 002-1.61 21.32 21.32 0 005.6-7.2 7.19 7.19 0 011-1.59 9.13 9.13 0 002.2-3.8 16 16 0 012.6-4.41c.8-.39.8-1.2 1-1.79.4-1 .4-2 1.2-2.4 1.4-1.81 2.4-4 3.6-5.81 1.8-2.59 3.2-5.39 5.4-7.79 1-2.4 2.8-4.2 4.4-6.2.8-.8 1.4-1.8 2.4-3a8.25 8.25 0 012-2.6 7.83 7.83 0 001.6-2 1.07 1.07 0 00.6-.8 12 12 0 014-3.8 5.39 5.39 0 001.6-1.4c.2-.2.4-.4.4-.6a9.15 9.15 0 013.2-3l1-.6c0-.4.2-.6.4-1v1c.2-.2.2-.2.4-.2l.2.2c0 .2.2.4 0 .6a2.94 2.94 0 00-1 1.2l-.2.2c.2.2.4 0 .6 0a1.84 1.84 0 001.2-.8c.6-.2 1.2-.4 1.6 0s.2 1 .2 1.6l.2-.2a3.51 3.51 0 00-.8 1.01zm-57.2-22.2c-.2-.4 0-1 0-1.6a5.54 5.54 0 01.2-1.8 47.22 47.22 0 012.2-8.8l1.2-4.6a12.94 12.94 0 01.8-2.6 51.82 51.82 0 002.8-5.8 7.4 7.4 0 013-4 1.75 1.75 0 012.8.8 2 2 0 001.4 1.2 1.35 1.35 0 01.8 1.2 1.51 1.51 0 00.2 1.6 1 1 0 01-.2.6 7.25 7.25 0 00-3.4 4.4c-.4.8-.6 1.6-1.4 2-.8 1-.6 2.2-.8 3.4 0 .2-.2.4-.4.6l.2.2h-.4a3 3 0 01-.6 2.6c-.2.6-.6 1.2-.2 2 0 .4-.2 1.4-.6 1.6-1.2 2-1.6 4.2-2.6 6.2-.4.4-.2 1-.2 1.6a7 7 0 01-1 1.6c-.4 1 .4-3.4-.2-3.4-.4 0-2.2 4.2-2.2 4a20.18 20.18 0 01-1.4-3zm5 .8h-.2c.2 0 .2 0 .2-.2zm0 0c.2-.2.6 0 .8 0-.4.2-.4.2-.8 0zm.4 60.2c0-1.4-.2-3-.2-4.8 0-.2 0-.2.2-.4 0 .2.4.4.4.59v2a3.14 3.14 0 01.4 1.61 2 2 0 01-.8 1zm0 0v.19c-.2-.19 0-.19 0-.19zm1-44.4h-.2V122zm15.8 47.59a24.64 24.64 0 00-2.2 3.41 2.13 2.13 0 00-.6 2.2 13.5 13.5 0 002.8-4.61 1.57 1.57 0 000-1zm1-1.59c-.2 0-.2.2-.4.2.2 0 .4 0 .4-.2zm.4-.8l-.4.59c.2-.39.4-.39.4-.59zm.4-1c-.2 0-.2.39-.4.8.4-.22.6-.22.4-.8zm.2 0c.2-.2 0-.41.2-.41a.65.65 0 00-.2.41zm.2 7a.2.2 0 00-.2.2h.2zm.4-8.2a.72.72 0 00-.2.59c.2-.19 0-.39.2-.59zm.6-.8c-.4.2-.2.39-.4.59zm.2-.61c-.2 0-.2.2 0 .41a.29.29 0 010-.41zm.6-.8a.2.2 0 00-.2.21zm.8-1.19v-.6l-.6.6c.4.18.4 0 .6 0zm.4 7c-.4.2-.6.41-.4.81.2-.01.2-.21.4-.82zm1-1.39c-.4.2-.6.39-.6.59.2-.21.4-.21.6-.6zm-.2-7.8c.2 0 .2-.2.2-.61 0 .4-.2.4-.2.6zm.6 7.19c-.4 0-.4.2-.6.61.2-.43.4-.43.6-.62zm10.2-17.39a1.51 1.51 0 01-.8.2c-.4.6-1.2 1.2-1.4 1.8-2 3.2-3.8 6.59-5.8 10a20.74 20.74 0 00-2 3.59 2.18 2.18 0 00-.4 1.61l1-1.2c2.8-4.8 5.4-9.6 8-14a17.3 17.3 0 001.4-2.01zm-10.4 9.4c.2 0 .4-.2.2-.4 0 .19 0 .19-.2.39zm.4-.81a.19.19 0 00.2-.19zm6-9.39c.2 0 .2-.4.2-.4-.2.19-.2.19-.2.39zm.4-.6c.4 0 .8 0 .8-.2a8.38 8.38 0 002.2-3.2.88.88 0 00-.2-1c-.8 1.37-2 2.79-2.8 4.37zm4.6-6.2a3.71 3.71 0 00-1.6 1.4c.8.19 1.2-.61 1.6-1.41zm-.4 5.8c0 .4-.2.4-.2.8.2-.21.2-.43.2-.81zm.4-.6c-.2 0-.2.2-.2.6.2-.01.4-.21.2-.63zm.4-.8c-.2 0-.4.2-.2.6.4-.01.4-.21.2-.61zm2.8-8.2h-.2l-.8.4c-.8 1-1.8 2-2 3.2a11.45 11.45 0 003-3.2zm-2.4 7.4c-.2.2-.2.2-.2.6a.73.73 0 00.2-.61zm1.8-1.2c0 .2-.2.4-.4.8l.2-.8a1 1 0 00.4-.8c.4-.2.6-.4.6-.8a1 1 0 01-.4.8 1.52 1.52 0 01-.4.79zm2.8-3.8a.62.62 0 01.2-.4zm.6-.8c-.4.2-.2.4-.4.4-.2-.21 0-.21.4-.41zm5.4-10.6a4.37 4.37 0 00-1 .6h.2c.2-.01.4-.41.8-.63zm3.8-5a3.51 3.51 0 001-.8c-.2.59-.6.59-1 .77z"/><path class="cls-1" d="M411.92 133.62v.4c-2.2 2.4-4.4 4.6-6.6 7l-3 3.2a75.76 75.76 0 01-6.4 7.6c-1.6 1.8-3 3.8-4.4 5.6-1 1.4-2 2.8-3.2 4.2-.2.39-.6.6-.6 1-.4 1.6-2 2.19-2.2 3.6a41.9 41.9 0 00-2.8 3.4c-1.4 1.19-2.4 2.8-3.8 4-1.8 1.39-3.2 3-5 4.19a23 23 0 01-8 4 14.19 14.19 0 01-8.2-.39 34.53 34.53 0 01-9.2-5.8 20.06 20.06 0 01-3.8-6.2c-.6-1.61-1-3-1.6-4.41a29.2 29.2 0 01-.6-10.19c.2-2.4.8-5 .4-7.4.4-2.6.6-5.4 1.8-7.8a1.52 1.52 0 00.4-.8c.6-3 2-5.4 2.8-8.2a16.06 16.06 0 013-5.8c1.8-2 2.8-4.6 4-7a5.67 5.67 0 011.6-2.2l3-3a18.29 18.29 0 019.6-4.8 5.54 5.54 0 011.8-.2 13.09 13.09 0 016.6 3.4l1.6 1.8a10.77 10.77 0 013.4 7.8 20.21 20.21 0 01.6 3.4 8.38 8.38 0 01-.8 3 2.54 2.54 0 01-.2 1.2 4.94 4.94 0 01-1.6 3.2l-1.2 1.4a.61.61 0 000 .8c.8 1.2 0 1.6-.6 2.2v.2c-.2-.6-.6-.6-.8 0v-.2c-1 1.4-2 3-3.2 4.4a12.75 12.75 0 00-.4 1.4 4.37 4.37 0 011-.6.2.2 0 01.2-.2 1 1 0 01.2.6l-1 1.2c-1.2.8-2.4 1.8-3.8 2.6 0 .2-.4 0-.4 0v-.6a2.32 2.32 0 00-1.6 1.2 1.8 1.8 0 01-1.2 1.2l-2.6 1.2c-3.2 1.6-6.4 1.4-9.8 0l-3.4-1.2c0 .2 0 .6-.4.4-.2 0-.2-.2-.2-.4a7.16 7.16 0 00-.2 5c.2.61.2 1.41.4 2 0 .61 0 1.41-.6 1.81a2.55 2.55 0 00-.8 2 49.54 49.54 0 00.6 5.4c0 .2.4.4.4.4.4-.2.6-.4.8 0 .4 1.19 1 2.39.4 3.8-.4 1.2.2 1.8 1 2.39 0 .61.8.41 1 .81.2 1.19 1.4 1.8 2 2.6l1.6 1.59c.2.41.8.61 1 1a2.1 2.1 0 002.6.2 16.8 16.8 0 004-2.59 43.72 43.72 0 004.2-4.41 28.88 28.88 0 013.6-3.39 13.18 13.18 0 002.2-2.4c2-2.8 4.2-5.21 6-8 1.2-1.6 2.6-2.8 3.8-4.6 1-1.4 2.4-2.8 3.6-4.2l1.2-1.4a22.64 22.64 0 002.6-2 24.27 24.27 0 002-2.8 115.63 115.63 0 019.8-10 11.43 11.43 0 013.2-2.2 7.91 7.91 0 003-2c1.4-1.6 3.4-2 5.2-2.4a.7.7 0 01.4.2c.2.2 0 .6 0 .6a21.82 21.82 0 00-2.2 1.2 3.51 3.51 0 00-.8 1h.2c-1 0-1.8.2-2 1.2h-.2a6.48 6.48 0 00-4 3.2c-.4 0-.8.2-.8.6a14927464857578.05 14927464857578.05 0 01-1.2 1.2c-.2.2-.6 0-.8.2a42.53 42.53 0 00-6 6v.6a.53.53 0 00-.6.6c-.4 0-.6.4-.6.8a6.29 6.29 0 00-3.2 3.6 14927464857388.81 14927464857388.81 0 00-1.2 1.2 12.49 12.49 0 00-3.2 3.4c0 .2.2.2.2.4h-.2a1 1 0 001.2-.6l.2-.2a.43.43 0 00.4-.4h.2v-.2l.6-.6v.6c.2-.2.4-.4.6-.4l.4-.6h-.4v.6h-.6l.6-.8v-1.2h.6V147l.6-1.2.6-.6.6-.6h-.6a2.76 2.76 0 01.8-.6v.4l.4-.4h-.6a2.76 2.76 0 01.8-.6v.4c.2-.2.4-.2.6-.4l.6-.8a3.73 3.73 0 001.8-2.4l.6-.6a.53.53 0 00.6-.6l.6-.6h-.6l.6-.6c0 .2 0 .4.2.4l.4-.4h-.6a2.76 2.76 0 01.8-.6v.4l.4-.4h-.6l.6-.6.2-.2.4-.4.2-.2.4-.4.2-.2.6-.6v.6l.4-.4c-.2 0-.2-.2-.4-.2l.6-.6v.6l.6-.6.6-.6.6-.6a2.88 2.88 0 002.4-1.8l.8-.8a5.46 5.46 0 002.4-1.8 8.7 8.7 0 011.4-1.2v-.6q0 .3.6.6a4.86 4.86 0 014.2-1.8 1.52 1.52 0 01.8.4.73.73 0 01-.2.6l-.8 1.2-1.8 1.2a55.63 55.63 0 00-12 10.6c-.4.4-1 .8-.8 1.4-.8 0-1.2.6-1.6 1-2.2 2.8-4.6 5.4-7 8.2l-5.4 6.8-6.6 8.4a1.28 1.28 0 00-.4 1 5.58 5.58 0 001.2-1c2.2-2.6 4.4-5 6.4-7.6 2.4-2.8 4.6-5.61 6.8-8.4 2-2.2 3.8-4.4 5.8-6.8a2.08 2.08 0 00.8-1.6 2.11 2.11 0 001-.4l2.4-2.4 3.6-3.6c.4-.58 1-.98 1.4-.78zM344.32 151l-.2.21h.2zm1.4-7.79h-.2v.2zm3.2-7.8a5.3 5.3 0 01-1 1.2l.4.4.2-.2c.2-.39.2-.99.4-1.39zm.6-1.6v-.2c0 .2 0 .2-.2.2zm4 10.2a1.91 1.91 0 001.6 1.6 4.4 4.4 0 001.6.2 26.86 26.86 0 005.4-1.4 45.21 45.21 0 005.2-3.2 5.88 5.88 0 002.4-2c1-.8 1.6-1.8 2.6-2.6a18.37 18.37 0 003.8-7c.4-1.2 1-2.4 1.4-3.4a10.55 10.55 0 00.6-2.4l.4-2.8a10 10 0 00-.4-4.2 5.13 5.13 0 00-5.2-4 14.23 14.23 0 00-4.2.8c0-.6.6-1 .2-1.4-.6.4-1.4.4-1.4 1.4a1.49 1.49 0 00-1.8 1 1.8 1.8 0 001 .2h.2a37.35 37.35 0 01-5.2 6c-.4-.6-.6-.8-1.2 0-.4.6-.8 1.4-1.4 2.2a10 10 0 00-2 3.8l-.6 2c-.4.6 0 1.2.4 1.6a14.34 14.34 0 01-1.4 5 26.61 26.61 0 00-2 6.8 2.78 2.78 0 000 1.79zm.8-19.4v-.4s-.4.21 0 .41zm1.4-2.2l.2-.2c0-.4.2-.8.2-1.2a2.76 2.76 0 00.8-.6v-.2c-.2.4-.6.6-.8.8a5.09 5.09 0 01-.4 1.41zm3 4.2c-.2-.2-.2-.2-.2-.4l1.2-2.6c.2-.2.8-.4 1-.6a18.29 18.29 0 01-1.8 3.4zm3-5.4a3.25 3.25 0 01-1 1.8c-.2-.79.4-1.19 1-1.79zm.2-7.6h.6v-.8h.6v-.6c.2.2.4.6.6.6l-.2.2h-.4v.6c.2-.2.2-.4.4-.6h.2v-.2a15.26 15.26 0 002.2-1.6c0-.2.2-.4.2-.6v-.2l-.2-.2a4.87 4.87 0 00-2.8 2v.2c-.4 0-.6.2-.6.4v.2zm2.2 2.2l.2.2v-.2zm.8-.4l.4-.4zm1.8-.6a4.18 4.18 0 01.8-1.2h1.2a2.35 2.35 0 01-2 1.21zm2.4 27.4c-.2.2-.6.2-.8.4v.4h.2c.4-.39.6-.59.6-.79zm0-30.2c0 .2.2.4.4 0zm4.8 26.2a1.94 1.94 0 00.2-1.8 24.77 24.77 0 01-3.6 4.4 3.51 3.51 0 00-.8 1c1.8-.59 3-1.99 4.2-3.59zm.4 3.2c-.2.2-.4.6-.8.8l.2-.2c-.8.2-1.4 1-2 1.4a3.4 3.4 0 002-1.2zm4 23a2.2 2.2 0 00.2-1h-.4a8.35 8.35 0 00-2.2 3 .7.7 0 01.2.39.19.19 0 00.2-.19 10.74 10.74 0 002-2.19zm-.2-28.4h.4v.4zm3 24.2a4.45 4.45 0 00-2.4 3 4.73 4.73 0 002.4-2.8zm1.2-.8h.2c0-.2.2-.41.4-.6v.19a1.58 1.58 0 01.8-.79h-.2V157c.6 0 .6-.19.6-.59-.4 0-.4.2-.6.59a5.17 5.17 0 00-2.4 3c.6.22.8-.38 1.2-.58zm0 7.2a.76.76 0 00-.6.19c.2.01.4-.18.6-.18zm.6-7.2c.2-.2.4-.2.4-.41h-.4zm1.6-.8c-.2-.2-.4-.2-.8-.4v.6c.2.01.4-.19.8-.19zm-.2-2.2a3.11 3.11 0 011.2-.6h-.2a1.54 1.54 0 00.8-.81v.81c.2-.2.4-.4.4-.6h-.4c0-.4.2-.6.6-.8v-1a3.83 3.83 0 00-2.4 2.8c-.2.01 0 .01 0 .21zm.8 1.4h-.2v.19zm1.6-4.6c.6.2.8-.4 1.2-.6v1.2c.2-.4.4-.6.6-1a.73.73 0 01-.6-.2l.6-.61v.61l.6-.61h-.6a3 3 0 01.8-.59v.4l.4-.4h-.6a2.59 2.59 0 01.8-.6h-.2v-1.2a2 2 0 00-1.2 1c-.8.81-1.8 1.39-1.8 2.61zm.6 1.4h-.6v.39c.2 0 .4-.18.6-.38zm2.6-3.8v.6c.4 0 .6-.2.8-.2-.2-.21-.4-.21-.8-.39zm1.8-1.8c.2-.2.2-.4.4-.6h-.4zm2.4-3.8v.6h-.6v-.6zm0-.6h.6v.6h-.6zm2.6-1.2h-.8c.2-.2.6-.4.8-.8zm1.2-3.2h.6a2.76 2.76 0 00-.6.8zm1.2-.6v.6h-.6v-.6zm.6-.6v.6h-.6zm0 0l.6-.6v.6zm2.6-2l.4-.4h-.4zm.6-1v.4a.43.43 0 00.4-.4zm.6-.6v.4l.4-.4zm1.8-2v.6h-.6zm.6-.6v.6h-.6v-.6zm.6-.6v.6h-.6v-.6zm0 0v-.6h.8a2.76 2.76 0 00-.8.61zm5.6 1.2a2.76 2.76 0 00.6-.8v.2a2.76 2.76 0 00-.6.8zm3.2-2.4a2.82 2.82 0 01-2.4 1.6c.8-.79 1.4-1.61 2.4-1.61zm4.2-2.4a12.38 12.38 0 01-3.4 2.2c-.2.2-.6 0-.8.2v-.4a12.81 12.81 0 013.8-2.6h.2a1 1 0 01.2.61z"/></g></g></svg>