<svg id="Laag_1" data-name="Laag 1" xmlns="http://www.w3.org/2000/svg" viewBox="0 0 431.66 512"><defs><style>.cls-1{fill:#fff}</style></defs><path class="cls-1" d="M255.93 173.56a80.3 80.3 0 10-80.3 80.31 80.39 80.39 0 0080.3-80.31zm-80.3 50.3a50.3 50.3 0 1150.3-50.3 50.35 50.35 0 01-50.3 50.3z"/><path class="cls-1" d="M319.44 278.52l10.72-19.37.07-.13a176 176 0 0021-83.39C351.27 78.79 272.48 0 175.63 0S0 78.79 0 175.63a176.06 176.06 0 0021.09 83.47L153.71 499a25.06 25.06 0 0043.84 0l20.95-37.89a116.76 116.76 0 10100.94-182.59zM202.68 427.67l-27.05 48.93L47.45 244.78A146.1 146.1 0 0130 175.63C30 95.33 95.33 30 175.63 30s145.63 65.33 145.63 145.63a145.94 145.94 0 01-17.4 69.07l-21.14 38.23a116.84 116.84 0 00-80 144.74zM314.88 482a86.79 86.79 0 1186.78-86.79A86.89 86.89 0 01314.88 482z"/><path class="cls-1" d="M342.4 359.19l-40.23 40.22-14.81-14.8a15 15 0 00-21.22 21.21l25.42 25.42a14.94 14.94 0 0019.34 1.57 14.54 14.54 0 001.87-1.57l50.83-50.84a15 15 0 10-21.21-21.21z"/></svg>