<svg data-name="Capa 1" xmlns="http://www.w3.org/2000/svg" viewBox="0 0 322.45 384.23"><path d="M300 175.32c-5.95-16.93-15.95-28.49-29.72-34.34-11-4.68-23.9-5.49-38.56-2.45l-66.5-122.81a30 30 0 00-40.66-12.1l-108.83 59a30 30 0 00-12.1 40.66l57.22 105.6-7.29 4a30 30 0 00-12.1 40.66l.64 1.18a30 30 0 0011.64 11.82 30 30 0 00.81 26.92l.64 1.17A30 30 0 0077.27 310a29.76 29.76 0 003.56 16.2l.64 1.17a30 30 0 0026.4 15.72 30.1 30.1 0 0014.27-3.62l7.32-4a30 30 0 0025.84 14.76c.68 0 1.36 0 2-.08 5.82 8.79 18 24.59 34.66 33a10 10 0 009-17.86c-10.63-5.36-19.22-15.31-24.42-22.49l72.71-39.38 1.29.68a10 10 0 009-17.84c-18.68-9.48-24.81-27.37-18.72-54.7 1.43-3.79 5.23-16.18-1.59-26.47-5.17-7.82-14.4-11.72-27.53-11.63a9 9 0 00-1.16.08c-.5 0-12.21 1.4-16-9.18-2.33-6.4 9-14.31 17.24-18.06 21.11-9.64 38.62-12 50.65-6.93 8.5 3.62 14.61 11 18.67 22.57q1.31 3.7 2.7 7.59c12.7 35.47 28.45 79.57 10.8 124.58a10 10 0 1018.62 7.3c20.38-52 2.51-102-10.53-138.6q-1.38-3.81-2.69-7.49zM20.43 86.1a10 10 0 014.82-5.95l108.83-58.94a10 10 0 0113.56 4l3.94 7.28L25.16 101l-3.94-7.27a9.94 9.94 0 01-.79-7.63zm37.83 150.26a10 10 0 014.82-6l6.6-3.57 10.16 18.81-6.63 3.59a9.86 9.86 0 01-4.71 1.19 10 10 0 01-8.81-5.24l-.64-1.14a9.94 9.94 0 01-.79-7.64zm14.52 48.7l-.64-1.17a10 10 0 014-13.56l6.55-3.55 6.59-3.57L99.52 282l-6.59 3.57-6.59 3.56a9.89 9.89 0 01-4.74 1.21 10 10 0 01-8.82-5.28zm39.83 36.8a9.77 9.77 0 01-4.74 1.21 10 10 0 01-8.82-5.24l-.63-1.17a10 10 0 014-13.55l6.6-3.58 10.16 18.76zm33.88 3.14l-3.94-7.27L223 274.16a54.33 54.33 0 009.34 15.72L160 329a9.89 9.89 0 01-4.74 1.21 10 10 0 01-8.77-5.21zm57-176.86c-23 10.48-33.57 27-27.74 43.07 7.21 19.87 26.73 23.26 36.66 22.27 6.2 0 9.33 1.37 10.19 2.65 1.21 1.79.46 6.21-.48 8.51a9.57 9.57 0 00-.57 1.74 100.4 100.4 0 00-2.76 27.3L133 300.14 34.68 118.57 161.1 50.1l51.1 94.35q-4.26 1.67-8.68 3.68z" fill="#fff"/></svg>