<svg id="Capa_1" data-name="Capa 1" xmlns="http://www.w3.org/2000/svg" viewBox="0 0 512 512"><defs><style>.cls-1{fill:#fff}</style></defs><circle class="cls-1" cx="256" cy="378.5" r="25"/><path class="cls-1" d="M256 0C114.52 0 0 114.5 0 256s114.5 256 256 256 256-114.5 256-256S397.5 0 256 0zm0 472a216 216 0 11216-216 215.88 215.88 0 01-216 216z"/><path class="cls-1" d="M256 128.5a80.09 80.09 0 00-80 80 20 20 0 0040 0 40 40 0 1140 40 20 20 0 00-20 20v50a20 20 0 0040 0V286a80 80 0 00-20-157.5z"/></svg>